<svg preserveAspectRatio="none" width="100%" height="100%" overflow="visible" style="display: block;" viewBox="0 0 19.7573 17.5094" fill="none" xmlns="http://www.w3.org/2000/svg">
<g id="heart healt">
<path id="Vector" d="M2.31206 9.10615L2.02253 8.81663C1.58069 8.37651 1.22985 7.85367 0.990065 7.27796C0.750277 6.70226 0.626231 6.08496 0.625009 5.46131C0.622541 4.2018 1.12051 2.9929 2.00937 2.10055C2.89824 1.20819 4.10518 0.705489 5.36469 0.703021C6.6242 0.700553 7.8331 1.19852 8.72546 2.08739L9.84846 3.22794L10.9715 2.08739C11.4075 1.63168 11.9301 1.26762 12.5087 1.01656C13.0872 0.76549 13.7101 0.632473 14.3408 0.625306C14.9714 0.618139 15.5972 0.736965 16.1813 0.974817C16.7654 1.21267 17.2962 1.56476 17.7425 2.01044C18.1887 2.45612 18.5415 2.98641 18.7801 3.57023C19.0187 4.15405 19.1384 4.77963 19.132 5.4103C19.1257 6.04096 18.9935 6.66402 18.7432 7.24292C18.4929 7.82182 18.1295 8.34492 17.6744 8.78153L17.3849 9.07106L9.84846 16.625L4.6458 11.4223L2.31206 9.10615Z" stroke="var(--stroke-0, black)" strokeWidth="1.25" strokeMiterlimit="10"/>
</g>
</svg>
