<svg preserveAspectRatio="none" width="100%" height="100%" overflow="visible" style="display: block;" viewBox="0 0 32 32" fill="none" xmlns="http://www.w3.org/2000/svg">
<g id="quote">
<path id="Vector" d="M13.3359 15.9974H6.66927C5.93289 15.9974 5.33594 15.4004 5.33594 14.6641V9.9974C5.33594 9.26102 5.93289 8.66406 6.66927 8.66406H12.0026C12.739 8.66406 13.3359 9.26102 13.3359 9.9974V15.9974ZM13.3359 15.9974C13.3359 19.3307 12.0026 21.3307 8.0026 23.3307" stroke="var(--stroke-0, black)" stroke-opacity="0.8" stroke-width="2" stroke-linecap="round"/>
<path id="Vector_2" d="M26.6641 15.9974H19.9974C19.261 15.9974 18.6641 15.4004 18.6641 14.6641V9.9974C18.6641 9.26102 19.261 8.66406 19.9974 8.66406H25.3307C26.0671 8.66406 26.6641 9.26102 26.6641 9.9974V15.9974ZM26.6641 15.9974C26.6641 19.3307 25.3307 21.3307 21.3307 23.3307" stroke="var(--stroke-0, black)" stroke-opacity="0.8" stroke-width="2" stroke-linecap="round"/>
</g>
</svg>
