<svg preserveAspectRatio="none" width="100%" height="100%" overflow="visible" style="display: block;" viewBox="0 0 20 20" fill="none" xmlns="http://www.w3.org/2000/svg">
<g id="remove-media-image">
<path id="Vector" d="M2.5 13.3359L8.33333 10.8359L11.6667 12.3511" stroke="var(--stroke-0, #E10174)" stroke-width="1.25" stroke-linecap="round" stroke-linejoin="round"/>
<path id="Vector_2" d="M13.3333 8.33333C12.4129 8.33333 11.6667 7.58714 11.6667 6.66667C11.6667 5.74619 12.4129 5 13.3333 5C14.2538 5 15 5.74619 15 6.66667C15 7.58714 14.2538 8.33333 13.3333 8.33333Z" stroke="var(--stroke-0, #E10174)" stroke-width="1.25" stroke-linecap="round" stroke-linejoin="round"/>
<path id="Vector_3" d="M14.0656 17.6037L15.8334 15.8359M17.6012 14.0682L15.8334 15.8359M15.8334 15.8359L14.0656 14.0682M15.8334 15.8359L17.6012 17.6037" stroke="var(--stroke-0, #E10174)" stroke-width="1.25" stroke-linecap="round" stroke-linejoin="round"/>
<path id="Vector_4" d="M10.8333 17.5H3C2.72386 17.5 2.5 17.2761 2.5 17V3C2.5 2.72386 2.72386 2.5 3 2.5H17C17.2761 2.5 17.5 2.72386 17.5 3V10.8333" stroke="var(--stroke-0, #E10174)" stroke-width="1.25" stroke-linecap="round" stroke-linejoin="round"/>
</g>
</svg>
