<svg preserveAspectRatio="none" width="100%" height="100%" overflow="visible" style="display: block;" viewBox="0 0 269.474 32" fill="none" xmlns="http://www.w3.org/2000/svg">
<g id="logo">
<path d="M19.5352 25.824C17.9553 25.824 16.6636 25.44 15.6602 24.672C14.6781 23.904 13.9522 22.9227 13.4825 21.728C13.0341 20.512 12.81 19.2533 12.81 17.952C12.81 16.2667 13.0662 14.5813 13.5786 12.896C14.091 11.1893 14.7955 9.568 15.6922 8.032C16.5889 6.47467 17.603 5.09867 18.7346 3.904C19.8875 2.70933 21.1044 1.77067 22.3854 1.088C23.6878 0.384 24.9794 0.0319996 26.2604 0.0319996C27.1785 0.0319996 27.9364 0.245333 28.5342 0.671999C29.1533 1.09867 29.4629 1.83467 29.4629 2.88C29.4629 3.52 29.3455 4.23467 29.1106 5.024C28.8971 5.81333 28.5982 6.57067 28.2139 7.296C27.851 8.02133 27.4347 8.61867 26.965 9.088C26.5166 9.55733 26.0576 9.792 25.5879 9.792C25.3958 9.792 25.1929 9.728 24.9794 9.6C24.7659 9.45067 24.5738 9.216 24.403 8.896C24.7232 8.53333 25.0755 8.08533 25.4598 7.552C25.8655 7.01867 26.2497 6.45333 26.6127 5.856C26.9756 5.25867 27.2745 4.68267 27.5094 4.128C27.7442 3.552 27.8617 3.04 27.8617 2.592C27.8617 2.208 27.7442 1.89867 27.5094 1.664C27.2959 1.408 26.9116 1.28 26.3565 1.28C25.4385 1.28 24.4777 1.64267 23.4743 2.368C22.4922 3.09333 21.5421 4.064 20.624 5.28C19.706 6.47467 18.8733 7.81867 18.1261 9.312C17.3788 10.784 16.7917 12.3093 16.3647 13.888C15.9377 15.4453 15.7242 16.928 15.7242 18.336C15.7242 19.36 15.8737 20.3413 16.1726 21.28C16.4715 22.2187 16.9625 22.976 17.6457 23.552C18.3289 24.1493 19.2149 24.448 20.3038 24.448C21.4567 24.448 22.5989 24.128 23.7305 23.488C24.862 22.848 25.8975 22.0053 26.8369 20.96C27.7976 19.9147 28.5662 18.784 29.1427 17.568L29.8472 18.048C29.1 19.456 28.2139 20.7573 27.1891 21.952C26.1643 23.1253 25.0008 24.064 23.6984 24.768C22.4174 25.472 21.0297 25.824 19.5352 25.824Z" fill="var(--fill-0, #E10174)"/>
<path d="M30.8158 24.064C29.8764 24.064 29.2253 23.7547 28.8623 23.136C28.4994 22.5387 28.3179 21.856 28.3179 21.088C28.3179 20.4053 28.4246 19.712 28.6381 19.008C28.8516 18.304 29.1399 17.6427 29.5028 17.024C29.8658 16.4053 30.2714 15.904 30.7198 15.52C31.1681 15.136 31.6271 14.944 32.0968 14.944C32.2249 14.944 32.3744 14.976 32.5452 15.04C32.7373 15.0827 32.8761 15.1467 32.9615 15.232C32.7266 15.488 32.4704 15.8507 32.1929 16.32C31.9367 16.7893 31.6912 17.3013 31.4563 17.856C31.2428 18.3893 31.0614 18.9333 30.9119 19.488C30.7838 20.0213 30.7198 20.512 30.7198 20.96C30.7198 21.4507 30.8052 21.8347 30.976 22.112C31.1468 22.3893 31.4243 22.528 31.8086 22.528C32.2356 22.528 32.7373 22.304 33.3138 21.856C33.9116 21.3867 34.4773 20.8213 35.0111 20.16C34.3492 19.584 33.8582 18.9227 33.5379 18.176C33.239 17.408 33.0896 16.544 33.0896 15.584C33.0896 15.0507 33.207 14.4853 33.4419 13.888C33.6767 13.2907 34.0397 12.7893 34.5307 12.384C35.0218 11.9787 35.6623 11.776 36.4522 11.776C37.3489 11.776 37.9681 12.032 38.3097 12.544C38.6726 13.0347 38.8541 13.632 38.8541 14.336C38.8541 15.1253 38.6406 16.0213 38.2136 17.024C37.8079 18.0053 37.3169 18.944 36.7404 19.84C37.0393 20.0107 37.3703 20.096 37.7332 20.096C38.0535 20.096 38.4378 20.0213 38.8861 19.872C39.3345 19.7227 39.7615 19.4773 40.1671 19.136C40.5941 18.7733 40.9357 18.304 41.1919 17.728L41.7043 18.112C41.2559 19.1573 40.6368 19.9253 39.8469 20.416C39.0783 20.8853 38.331 21.12 37.6051 21.12C37.3276 21.12 37.05 21.0987 36.7725 21.056C36.4949 20.992 36.2387 20.9067 36.0039 20.8C35.278 21.696 34.456 22.464 33.5379 23.104C32.6412 23.744 31.7339 24.064 30.8158 24.064ZM35.7477 19.2C36.2814 18.4533 36.7191 17.6533 37.0607 16.8C37.4236 15.9253 37.6051 15.1253 37.6051 14.4C37.6051 13.8667 37.5197 13.4827 37.3489 13.248C37.1995 12.992 36.986 12.864 36.7084 12.864C36.2814 12.864 35.8544 13.1627 35.4274 13.76C35.0004 14.336 34.7869 15.072 34.7869 15.968C34.7869 16.48 34.8616 17.056 35.0111 17.696C35.1819 18.3147 35.4274 18.816 35.7477 19.2Z" fill="var(--fill-0, #E10174)"/>
<path d="M57.3561 24.032C56.5448 24.032 55.947 23.7867 55.5627 23.296C55.1784 22.8267 54.9862 22.2613 54.9862 21.6C54.9862 21.088 55.061 20.5867 55.2104 20.096C55.3599 19.584 55.5093 19.0827 55.6588 18.592C55.8296 18.1013 55.915 17.6533 55.915 17.248C55.915 16.864 55.8296 16.5973 55.6588 16.448C55.5093 16.2987 55.3278 16.224 55.1143 16.224C54.6019 16.224 54.0255 16.6187 53.385 17.408C52.7445 18.176 51.9332 19.2853 50.9511 20.736C50.6095 21.248 50.2999 21.7813 50.0224 22.336C49.7448 22.8907 49.4886 23.3707 49.2538 23.776C49.083 23.776 48.8481 23.744 48.5492 23.68C48.2503 23.616 47.9835 23.5307 47.7486 23.424C47.5351 23.3173 47.4284 23.1787 47.4284 23.008C47.4284 22.816 47.5351 22.4427 47.7486 21.888C47.9621 21.3333 48.2076 20.6827 48.4852 19.936C48.7627 19.1893 48.9976 18.4533 49.1897 17.728C49.4032 16.9813 49.51 16.352 49.51 15.84C49.51 15.52 49.4566 15.2747 49.3499 15.104C49.2431 14.912 49.0616 14.816 48.8054 14.816C48.3571 14.816 47.8127 15.0933 47.1722 15.648C46.5317 16.1813 45.8591 16.8853 45.1546 17.76C44.45 18.6347 43.7882 19.616 43.169 20.704C42.5712 21.7707 42.0802 22.8373 41.6959 23.904C41.4611 23.904 41.1835 23.8613 40.8633 23.776C40.543 23.6907 40.2655 23.584 40.0306 23.456C39.7958 23.328 39.6783 23.2107 39.6783 23.104C39.6783 23.04 39.7637 22.7093 39.9345 22.112C40.1053 21.5147 40.3188 20.7787 40.575 19.904C40.8099 19.0293 41.0341 18.1333 41.2476 17.216C41.4824 16.2987 41.6639 15.488 41.792 14.784C41.8774 14.592 42.1015 14.4107 42.4645 14.24C42.8274 14.0693 43.1584 13.984 43.4573 13.984C43.7562 13.984 43.991 14.0693 44.1618 14.24C44.354 14.4107 44.45 14.6453 44.45 14.944C44.45 15.1787 44.3967 15.552 44.2899 16.064C44.1832 16.5547 44.0444 17.1093 43.8736 17.728C44.3219 17.088 44.8023 16.4587 45.3147 15.84C45.8271 15.2 46.3609 14.624 46.916 14.112C47.4924 13.6 48.0582 13.1947 48.6133 12.896C49.1897 12.576 49.7555 12.416 50.3106 12.416C51.0578 12.416 51.5596 12.6827 51.8158 13.216C52.0933 13.7493 52.2321 14.3467 52.2321 15.008C52.2321 15.3707 52.1894 15.744 52.104 16.128C52.0399 16.512 51.9545 16.8747 51.8478 17.216C51.7624 17.5573 51.6556 17.8987 51.5275 18.24C51.9332 17.5787 52.3922 16.9493 52.9046 16.352C53.417 15.7547 53.9614 15.2853 54.5379 14.944C55.1143 14.5813 55.7335 14.4 56.3953 14.4C57.1853 14.4 57.7297 14.6347 58.0286 15.104C58.3275 15.5733 58.477 16.096 58.477 16.672C58.477 17.2267 58.3809 17.824 58.1887 18.464C58.0179 19.0827 57.8365 19.68 57.6443 20.256C57.4522 20.8107 57.3561 21.2907 57.3561 21.696C57.3561 21.9307 57.4095 22.144 57.5162 22.336C57.6443 22.528 57.8792 22.624 58.2208 22.624C58.7972 22.624 59.3523 22.3573 59.886 21.824C60.4198 21.2907 60.9108 20.64 61.3592 19.872C61.8075 19.0827 62.1918 18.336 62.5121 17.632L62.9925 18.208C62.6509 19.104 62.2132 20 61.6794 20.896C61.1457 21.792 60.5159 22.5387 59.79 23.136C59.0641 23.7333 58.2528 24.032 57.3561 24.032Z" fill="var(--fill-0, #E10174)"/>
<path d="M60.2029 32C60.0321 32 59.8613 31.936 59.6905 31.808C59.4984 31.68 59.3382 31.5413 59.2101 31.392C59.082 31.2427 59.018 31.136 59.018 31.072C59.4663 29.6853 59.8613 28.4693 60.2029 27.424C60.5445 26.4 60.8541 25.408 61.1316 24.448C61.3878 23.488 61.6334 22.4533 61.8682 21.344C62.1031 20.2133 62.3379 18.8907 62.5728 17.376C62.8076 15.84 63.0531 13.9733 63.3093 11.776C63.352 11.5413 63.4054 11.3707 63.4695 11.264C63.5335 11.1573 63.7256 11.104 64.0459 11.104C64.665 11.104 65.1134 11.2747 65.3909 11.616C65.6685 11.9573 65.8073 12.3307 65.8073 12.736C65.8073 12.9707 65.7539 13.3973 65.6471 14.016C65.5617 14.6133 65.4336 15.3387 65.2628 16.192C65.6471 15.5307 66.1062 14.9013 66.6399 14.304C67.1737 13.6853 67.7715 13.1733 68.4333 12.768C69.0952 12.3627 69.8104 12.16 70.579 12.16C71.6038 12.16 72.4364 12.512 73.0769 13.216C73.7388 13.8987 74.0697 14.8053 74.0697 15.936C74.0697 16.768 73.8775 17.6533 73.4932 18.592C73.1303 19.5093 72.6072 20.384 71.924 21.216C71.2622 22.0267 70.4509 22.688 69.4901 23.2C68.5507 23.7333 67.5153 24 66.3837 24C65.7432 24 65.2308 23.9147 64.8465 23.744C64.4622 23.5947 64.2701 23.4347 64.2701 23.264C64.2701 23.136 64.3448 23.0613 64.4942 23.04C64.665 22.9973 64.8465 22.976 65.0387 22.976C65.9994 22.976 66.8748 22.7733 67.6647 22.368C68.476 21.9413 69.1806 21.3973 69.7784 20.736C70.3975 20.0747 70.8672 19.36 71.1875 18.592C71.529 17.824 71.6999 17.056 71.6999 16.288C71.6999 15.648 71.5504 15.0933 71.2515 14.624C70.974 14.1333 70.5256 13.888 69.9065 13.888C69.3514 13.888 68.7963 14.0693 68.2412 14.432C67.7074 14.7733 67.2057 15.2107 66.736 15.744C66.2663 16.256 65.85 16.8 65.487 17.376C65.1241 17.952 64.8465 18.464 64.6544 18.912C64.2487 20.384 63.8644 21.824 63.5015 23.232C63.1599 24.6613 62.8289 25.9733 62.5087 27.168C62.2098 28.384 61.9109 29.3973 61.612 30.208C61.2918 31.0187 60.9822 31.552 60.6833 31.808C60.5338 31.936 60.3737 32 60.2029 32Z" fill="var(--fill-0, #E10174)"/>
<path d="M78.9654 24.448C77.6203 24.448 76.5955 24.0853 75.891 23.36C75.1864 22.6347 74.8341 21.728 74.8341 20.64C74.8341 19.68 75.069 18.6773 75.5387 17.632C76.0297 16.5653 76.6809 15.5733 77.4922 14.656C78.3035 13.7173 79.1895 12.96 80.1503 12.384C81.1324 11.7867 82.1038 11.488 83.0645 11.488C83.5983 11.488 84.1 11.6267 84.5697 11.904C85.0608 12.1813 85.3063 12.736 85.3063 13.568C85.3063 14.3787 85.0608 15.1467 84.5697 15.872C84.1 16.576 83.4702 17.2053 82.6802 17.76C81.9116 18.3147 81.047 18.7733 80.0862 19.136C79.1468 19.4773 78.2074 19.6907 77.268 19.776C77.2467 19.904 77.2253 20.032 77.204 20.16C77.1826 20.288 77.172 20.4587 77.172 20.672C77.172 20.8427 77.1933 21.0773 77.236 21.376C77.3001 21.6533 77.4068 21.9413 77.5563 22.24C77.7271 22.5173 77.9833 22.752 78.3249 22.944C78.6665 23.136 79.1148 23.232 79.6699 23.232C80.5666 23.232 81.4633 22.976 82.36 22.464C83.2781 21.952 84.1321 21.28 84.922 20.448C85.7119 19.5947 86.3738 18.656 86.9075 17.632L87.452 18.08C86.8755 19.36 86.1389 20.48 85.2422 21.44C84.3456 22.3787 83.3528 23.1147 82.2639 23.648C81.1964 24.1813 80.0969 24.448 78.9654 24.448ZM77.5563 18.784C78.1114 18.6773 78.7412 18.464 79.4457 18.144C80.1503 17.8027 80.8228 17.3867 81.4633 16.896C82.1038 16.384 82.6269 15.8293 83.0325 15.232C83.4595 14.6347 83.673 14.0267 83.673 13.408C83.673 13.1733 83.6303 13.0027 83.5449 12.896C83.4595 12.7893 83.3101 12.736 83.0966 12.736C82.5842 12.736 82.0504 12.928 81.4953 13.312C80.9616 13.6747 80.4278 14.1547 79.8941 14.752C79.3817 15.328 78.9227 15.9787 78.517 16.704C78.1114 17.408 77.7911 18.1013 77.5563 18.784Z" fill="var(--fill-0, #E10174)"/>
<path d="M89.2938 24.512C88.3544 24.512 87.6071 24.2347 87.052 23.68C86.5183 23.1467 86.2514 22.3253 86.2514 21.216C86.2514 20.32 86.4222 19.2107 86.7638 17.888C87.1054 16.5653 87.5324 15.2 88.0448 13.792C87.874 13.7493 87.6818 13.7173 87.4683 13.696C87.2762 13.6533 87.0947 13.5893 86.9239 13.504V12.64C87.2015 12.6827 87.447 12.7147 87.6605 12.736C87.8953 12.7573 88.1409 12.7787 88.3971 12.8C88.8454 11.6693 89.3258 10.5707 89.8382 9.504C90.3719 8.43733 90.895 7.488 91.4074 6.656C91.9198 5.824 92.4108 5.16267 92.8805 4.672C93.3502 4.18133 93.7559 3.936 94.0975 3.936C94.311 3.936 94.5031 4.01067 94.6739 4.16C94.8447 4.30933 94.9301 4.52267 94.9301 4.8C94.9301 5.20533 94.706 5.81333 94.2576 6.624C93.8306 7.41333 93.2862 8.352 92.6243 9.44C91.9838 10.5067 91.3647 11.6587 90.7669 12.896C90.9377 12.896 91.1085 12.896 91.2793 12.896C91.4715 12.896 91.6529 12.896 91.8237 12.896C92.6777 12.896 93.489 12.8853 94.2576 12.864C95.0262 12.8213 95.8055 12.7573 96.5954 12.672V13.568C95.4212 13.696 94.343 13.792 93.3609 13.856C92.4002 13.92 91.5035 13.952 90.6708 13.952C90.6068 13.952 90.532 13.952 90.4466 13.952C90.3826 13.952 90.3186 13.952 90.2545 13.952C89.7848 15.04 89.3792 16.1493 89.0376 17.28C88.7173 18.4107 88.5572 19.5093 88.5572 20.576C88.5572 21.472 88.696 22.112 88.9735 22.496C89.251 22.8587 89.6994 23.04 90.3185 23.04C91.386 23.04 92.4749 22.5493 93.5851 21.568C94.6953 20.5867 95.656 19.264 96.4673 17.6L96.9157 17.92C96.3819 19.1573 95.7094 20.2773 94.8981 21.28C94.0868 22.2827 93.2008 23.072 92.24 23.648C91.3006 24.224 90.3186 24.512 89.2938 24.512Z" fill="var(--fill-0, #E10174)"/>
<path d="M98.3802 23.968C97.4835 23.968 96.811 23.6907 96.3626 23.136C95.9143 22.6027 95.6901 21.9413 95.6901 21.152C95.6901 20.6613 95.7755 20.0427 95.9463 19.296C96.1171 18.5493 96.3519 17.7707 96.6508 16.96C96.9711 16.128 97.334 15.3493 97.7397 14.624C98.1453 13.8987 98.5723 13.312 99.0207 12.864C99.4904 12.3947 99.9494 12.16 100.398 12.16C100.633 12.16 100.835 12.2347 101.006 12.384C101.198 12.5333 101.294 12.7467 101.294 13.024C101.294 13.3013 101.124 13.7173 100.782 14.272C100.462 14.8267 100.078 15.4773 99.6292 16.224C99.1808 16.9493 98.7858 17.7067 98.4442 18.496C98.124 19.2853 97.9639 20.0427 97.9639 20.768C97.9639 21.472 98.092 21.9413 98.3482 22.176C98.6044 22.4107 98.978 22.528 99.469 22.528C100.195 22.528 100.974 22.1653 101.807 21.44C102.661 20.7147 103.547 19.4453 104.465 17.632L104.881 18.08C104.177 19.9573 103.237 21.408 102.063 22.432C100.91 23.456 99.6825 23.968 98.3802 23.968ZM102.191 9.44C101.807 9.44 101.455 9.344 101.134 9.152C100.835 8.96 100.686 8.672 100.686 8.288C100.686 7.776 100.953 7.34933 101.487 7.008C102.042 6.64533 102.607 6.464 103.184 6.464C103.547 6.464 103.846 6.54933 104.081 6.72C104.315 6.89067 104.433 7.17867 104.433 7.584C104.433 8.032 104.198 8.45867 103.728 8.864C103.259 9.248 102.746 9.44 102.191 9.44Z" fill="var(--fill-0, #E10174)"/>
<path d="M106.828 24.512C105.888 24.512 105.141 24.2347 104.586 23.68C104.052 23.1467 103.785 22.3253 103.785 21.216C103.785 20.32 103.956 19.2107 104.298 17.888C104.639 16.5653 105.066 15.2 105.579 13.792C105.408 13.7493 105.216 13.7173 105.002 13.696C104.81 13.6533 104.629 13.5893 104.458 13.504V12.64C104.736 12.6827 104.981 12.7147 105.195 12.736C105.429 12.7573 105.675 12.7787 105.931 12.8C106.38 11.6693 106.86 10.5707 107.372 9.504C107.906 8.43733 108.429 7.488 108.942 6.656C109.454 5.824 109.945 5.16267 110.415 4.672C110.884 4.18133 111.29 3.936 111.632 3.936C111.845 3.936 112.037 4.01067 112.208 4.16C112.379 4.30933 112.464 4.52267 112.464 4.8C112.464 5.20533 112.24 5.81333 111.792 6.624C111.365 7.41333 110.82 8.352 110.158 9.44C109.518 10.5067 108.899 11.6587 108.301 12.896C108.472 12.896 108.643 12.896 108.813 12.896C109.006 12.896 109.187 12.896 109.358 12.896C110.212 12.896 111.023 12.8853 111.792 12.864C112.56 12.8213 113.34 12.7573 114.13 12.672V13.568C112.955 13.696 111.877 13.792 110.895 13.856C109.934 13.92 109.038 13.952 108.205 13.952C108.141 13.952 108.066 13.952 107.981 13.952C107.917 13.952 107.853 13.952 107.789 13.952C107.319 15.04 106.913 16.1493 106.572 17.28C106.251 18.4107 106.091 19.5093 106.091 20.576C106.091 21.472 106.23 22.112 106.508 22.496C106.785 22.8587 107.234 23.04 107.853 23.04C108.92 23.04 110.009 22.5493 111.119 21.568C112.229 20.5867 113.19 19.264 114.001 17.6L114.45 17.92C113.916 19.1573 113.244 20.2773 112.432 21.28C111.621 22.2827 110.735 23.072 109.774 23.648C108.835 24.224 107.853 24.512 106.828 24.512Z" fill="var(--fill-0, #E10174)"/>
<path d="M115.914 23.968C115.018 23.968 114.345 23.6907 113.897 23.136C113.448 22.6027 113.224 21.9413 113.224 21.152C113.224 20.6613 113.31 20.0427 113.48 19.296C113.651 18.5493 113.886 17.7707 114.185 16.96C114.505 16.128 114.868 15.3493 115.274 14.624C115.679 13.8987 116.106 13.312 116.555 12.864C117.024 12.3947 117.484 12.16 117.932 12.16C118.167 12.16 118.37 12.2347 118.54 12.384C118.732 12.5333 118.829 12.7467 118.829 13.024C118.829 13.3013 118.658 13.7173 118.316 14.272C117.996 14.8267 117.612 15.4773 117.163 16.224C116.715 16.9493 116.32 17.7067 115.978 18.496C115.658 19.2853 115.498 20.0427 115.498 20.768C115.498 21.472 115.626 21.9413 115.882 22.176C116.138 22.4107 116.512 22.528 117.003 22.528C117.729 22.528 118.508 22.1653 119.341 21.44C120.195 20.7147 121.081 19.4453 121.999 17.632L122.415 18.08C121.711 19.9573 120.771 21.408 119.597 22.432C118.444 23.456 117.217 23.968 115.914 23.968ZM119.725 9.44C119.341 9.44 118.989 9.344 118.668 9.152C118.37 8.96 118.22 8.672 118.22 8.288C118.22 7.776 118.487 7.34933 119.021 7.008C119.576 6.64533 120.142 6.464 120.718 6.464C121.081 6.464 121.38 6.54933 121.615 6.72C121.85 6.89067 121.967 7.17867 121.967 7.584C121.967 8.032 121.732 8.45867 121.262 8.864C120.793 9.248 120.28 9.44 119.725 9.44Z" fill="var(--fill-0, #E10174)"/>
<path d="M123.657 24.064C122.718 24.064 122.067 23.7547 121.704 23.136C121.341 22.5387 121.159 21.856 121.159 21.088C121.159 20.4053 121.266 19.712 121.48 19.008C121.693 18.304 121.981 17.6427 122.344 17.024C122.707 16.4053 123.113 15.904 123.561 15.52C124.01 15.136 124.469 14.944 124.938 14.944C125.067 14.944 125.216 14.976 125.387 15.04C125.579 15.0827 125.718 15.1467 125.803 15.232C125.568 15.488 125.312 15.8507 125.035 16.32C124.778 16.7893 124.533 17.3013 124.298 17.856C124.084 18.3893 123.903 18.9333 123.754 19.488C123.625 20.0213 123.561 20.512 123.561 20.96C123.561 21.4507 123.647 21.8347 123.818 22.112C123.988 22.3893 124.266 22.528 124.65 22.528C125.077 22.528 125.579 22.304 126.155 21.856C126.753 21.3867 127.319 20.8213 127.853 20.16C127.191 19.584 126.7 18.9227 126.38 18.176C126.081 17.408 125.931 16.544 125.931 15.584C125.931 15.0507 126.049 14.4853 126.283 13.888C126.518 13.2907 126.881 12.7893 127.372 12.384C127.863 11.9787 128.504 11.776 129.294 11.776C130.191 11.776 130.81 12.032 131.151 12.544C131.514 13.0347 131.696 13.632 131.696 14.336C131.696 15.1253 131.482 16.0213 131.055 17.024C130.65 18.0053 130.158 18.944 129.582 19.84C129.881 20.0107 130.212 20.096 130.575 20.096C130.895 20.096 131.279 20.0213 131.728 19.872C132.176 19.7227 132.603 19.4773 133.009 19.136C133.436 18.7733 133.777 18.304 134.034 17.728L134.546 18.112C134.098 19.1573 133.478 19.9253 132.688 20.416C131.92 20.8853 131.173 21.12 130.447 21.12C130.169 21.12 129.892 21.0987 129.614 21.056C129.337 20.992 129.08 20.9067 128.845 20.8C128.12 21.696 127.298 22.464 126.38 23.104C125.483 23.744 124.575 24.064 123.657 24.064ZM128.589 19.2C129.123 18.4533 129.561 17.6533 129.902 16.8C130.265 15.9253 130.447 15.1253 130.447 14.4C130.447 13.8667 130.361 13.4827 130.191 13.248C130.041 12.992 129.828 12.864 129.55 12.864C129.123 12.864 128.696 13.1627 128.269 13.76C127.842 14.336 127.629 15.072 127.629 15.968C127.629 16.48 127.703 17.056 127.853 17.696C128.023 18.3147 128.269 18.816 128.589 19.2Z" fill="var(--fill-0, #E10174)"/>
<path d="M144.273 23.68C143.483 23.68 142.875 23.4773 142.448 23.072C142.042 22.6667 141.839 22.1547 141.839 21.536C141.839 21.088 141.914 20.6293 142.063 20.16C142.213 19.6693 142.362 19.1787 142.512 18.688C142.661 18.176 142.736 17.6853 142.736 17.216C142.736 16.704 142.618 16.352 142.384 16.16C142.149 15.968 141.871 15.872 141.551 15.872C140.91 15.872 140.249 16.1387 139.565 16.672C138.904 17.2053 138.252 17.8773 137.612 18.688C136.971 19.4773 136.374 20.3093 135.818 21.184C135.263 22.0587 134.783 22.8373 134.377 23.52C133.993 23.52 133.63 23.456 133.289 23.328C132.947 23.2 132.659 22.976 132.424 22.656C132.445 22.5493 132.573 22.2293 132.808 21.696C133.022 21.1413 133.267 20.48 133.545 19.712C133.822 18.9227 134.068 18.112 134.281 17.28C134.516 16.448 134.634 15.68 134.634 14.976C134.783 14.8267 135.007 14.6667 135.306 14.496C135.605 14.3253 135.915 14.24 136.235 14.24C136.918 14.24 137.26 14.5493 137.26 15.168C137.26 15.4453 137.196 15.8933 137.067 16.512C136.939 17.1093 136.769 17.7707 136.555 18.496C137.11 17.7067 137.729 16.9493 138.413 16.224C139.096 15.4773 139.811 14.8693 140.558 14.4C141.305 13.9307 142.063 13.696 142.832 13.696C143.707 13.696 144.348 14.0053 144.753 14.624C145.18 15.2213 145.394 15.8933 145.394 16.64C145.394 17.28 145.287 17.888 145.074 18.464C144.86 19.0187 144.647 19.552 144.433 20.064C144.241 20.5547 144.145 21.0453 144.145 21.536C144.145 21.8987 144.22 22.1653 144.369 22.336C144.54 22.4853 144.743 22.56 144.978 22.56C145.49 22.56 146.013 22.3147 146.547 21.824C147.102 21.312 147.625 20.6827 148.116 19.936C148.628 19.168 149.077 18.4 149.461 17.632L149.941 18.048C149.493 19.0933 148.991 20.0427 148.436 20.896C147.881 21.7493 147.262 22.432 146.579 22.944C145.896 23.4347 145.127 23.68 144.273 23.68Z" fill="var(--fill-0, #E10174)"/>
<path d="M156.133 25.824C154.916 25.824 153.763 25.6107 152.674 25.184C151.585 24.7573 150.699 24.1067 150.016 23.232C149.354 22.3787 149.023 21.3013 149.023 20C149.023 18.8693 149.258 17.984 149.728 17.344C150.219 16.704 150.827 16.256 151.553 16C152.279 15.744 152.984 15.616 153.667 15.616C153.005 16.2987 152.503 17.024 152.162 17.792C151.841 18.56 151.681 19.296 151.681 20C151.681 20.7467 151.863 21.4507 152.226 22.112C152.589 22.752 153.144 23.2747 153.891 23.68C154.638 24.0853 155.567 24.288 156.677 24.288C157.638 24.288 158.567 24.1173 159.463 23.776C160.381 23.456 161.129 22.9653 161.705 22.304C162.303 21.6427 162.602 20.8213 162.602 19.84C162.602 18.944 162.356 18.176 161.865 17.536C161.374 16.896 160.744 16.3307 159.976 15.84C159.207 15.328 158.385 14.848 157.51 14.4C156.656 13.9307 155.844 13.4293 155.076 12.896C154.307 12.3627 153.677 11.7547 153.186 11.072C152.695 10.368 152.45 9.52533 152.45 8.544C152.45 7.66933 152.663 6.74133 153.09 5.76C153.539 4.75733 154.158 3.81867 154.948 2.944C155.759 2.06933 156.73 1.36533 157.862 0.832001C159.015 0.277334 160.296 0 161.705 0C163.093 0 164.064 0.309333 164.619 0.927999C165.196 1.54667 165.484 2.336 165.484 3.296C165.484 4.08533 165.345 4.928 165.068 5.824C164.811 6.72 164.48 7.57333 164.075 8.384C163.691 9.17333 163.317 9.856 162.954 10.432C162.506 10.3253 162.175 10.144 161.961 9.888C161.769 9.632 161.673 9.30133 161.673 8.896C161.673 8.448 161.758 7.94667 161.929 7.392C162.121 6.816 162.335 6.22933 162.57 5.632C162.826 5.01333 163.05 4.42667 163.242 3.872C163.434 3.296 163.53 2.784 163.53 2.336C163.53 1.93067 163.413 1.62133 163.178 1.408C162.943 1.17333 162.474 1.056 161.769 1.056C160.766 1.056 159.837 1.29067 158.983 1.76C158.129 2.208 157.382 2.784 156.741 3.488C156.122 4.192 155.631 4.928 155.268 5.696C154.926 6.464 154.756 7.168 154.756 7.808C154.756 8.576 154.99 9.23733 155.46 9.792C155.951 10.3467 156.57 10.848 157.318 11.296C158.086 11.744 158.897 12.2027 159.751 12.672C160.605 13.12 161.406 13.6213 162.153 14.176C162.922 14.7307 163.541 15.392 164.011 16.16C164.502 16.9067 164.747 17.8347 164.747 18.944C164.747 20.0533 164.502 21.0347 164.011 21.888C163.52 22.7413 162.847 23.456 161.993 24.032C161.161 24.608 160.232 25.0453 159.207 25.344C158.182 25.664 157.157 25.824 156.133 25.824Z" fill="var(--fill-0, #E10174)"/>
<path d="M169.496 24C168.77 24 168.172 23.6693 167.703 23.008C167.254 22.3467 167.03 21.5787 167.03 20.704C167.03 20.1067 167.126 19.4027 167.318 18.592C167.532 17.7813 167.788 16.992 168.087 16.224C168.386 15.4347 168.696 14.784 169.016 14.272C169.357 13.76 169.656 13.504 169.912 13.504C170.062 13.504 170.275 13.5787 170.553 13.728C170.852 13.8773 171.108 14.0587 171.322 14.272C171.087 14.6133 170.799 15.1467 170.457 15.872C170.137 16.5973 169.848 17.376 169.592 18.208C169.336 19.0187 169.208 19.7653 169.208 20.448C169.208 20.5547 169.219 20.7787 169.24 21.12C169.283 21.44 169.368 21.7387 169.496 22.016C169.646 22.2933 169.891 22.432 170.233 22.432C170.596 22.432 170.991 22.24 171.418 21.856C171.845 21.4507 172.272 20.928 172.699 20.288C173.147 19.648 173.574 18.9547 173.98 18.208C174.385 17.4613 174.759 16.7467 175.101 16.064C175.442 15.3813 175.72 14.8053 175.933 14.336C176.104 14.3573 176.328 14.4107 176.606 14.496C176.905 14.56 177.161 14.656 177.374 14.784C177.609 14.912 177.727 15.0933 177.727 15.328C177.727 15.392 177.62 15.6587 177.406 16.128C177.214 16.5973 176.979 17.1627 176.702 17.824C176.424 18.4853 176.179 19.1573 175.965 19.84C175.773 20.5227 175.677 21.12 175.677 21.632C175.677 21.952 175.741 22.2293 175.869 22.464C175.997 22.6987 176.243 22.816 176.606 22.816C177.054 22.816 177.588 22.6133 178.207 22.208C178.847 21.8027 179.499 21.216 180.16 20.448C180.822 19.6587 181.409 18.7307 181.922 17.664L182.37 18.016C181.9 19.168 181.292 20.2027 180.545 21.12C179.819 22.016 179.029 22.72 178.175 23.232C177.342 23.744 176.531 24 175.741 24C175.143 24 174.684 23.8613 174.364 23.584C174.044 23.328 173.82 22.9867 173.691 22.56C173.585 22.1333 173.531 21.696 173.531 21.248C173.531 21.0987 173.531 20.9387 173.531 20.768C173.553 20.5973 173.574 20.4373 173.595 20.288C173.232 20.9067 172.827 21.504 172.378 22.08C171.951 22.6347 171.492 23.0933 171.001 23.456C170.532 23.8187 170.03 24 169.496 24Z" fill="var(--fill-0, #E10174)"/>
<path d="M183.909 23.968C183.012 23.968 182.34 23.6907 181.891 23.136C181.443 22.6027 181.219 21.9413 181.219 21.152C181.219 20.6613 181.304 20.0427 181.475 19.296C181.646 18.5493 181.881 17.7707 182.18 16.96C182.5 16.128 182.863 15.3493 183.268 14.624C183.674 13.8987 184.101 13.312 184.549 12.864C185.019 12.3947 185.478 12.16 185.927 12.16C186.161 12.16 186.364 12.2347 186.535 12.384C186.727 12.5333 186.823 12.7467 186.823 13.024C186.823 13.3013 186.652 13.7173 186.311 14.272C185.991 14.8267 185.606 15.4773 185.158 16.224C184.71 16.9493 184.315 17.7067 183.973 18.496C183.653 19.2853 183.493 20.0427 183.493 20.768C183.493 21.472 183.621 21.9413 183.877 22.176C184.133 22.4107 184.507 22.528 184.998 22.528C185.724 22.528 186.503 22.1653 187.336 21.44C188.19 20.7147 189.076 19.4453 189.994 17.632L190.41 18.08C189.706 19.9573 188.766 21.408 187.592 22.432C186.439 23.456 185.211 23.968 183.909 23.968ZM187.72 9.44C187.336 9.44 186.983 9.344 186.663 9.152C186.364 8.96 186.215 8.672 186.215 8.288C186.215 7.776 186.482 7.34933 187.015 7.008C187.57 6.64533 188.136 6.464 188.713 6.464C189.076 6.464 189.375 6.54933 189.609 6.72C189.844 6.89067 189.962 7.17867 189.962 7.584C189.962 8.032 189.727 8.45867 189.257 8.864C188.787 9.248 188.275 9.44 187.72 9.44Z" fill="var(--fill-0, #E10174)"/>
<path d="M192.357 24.512C191.417 24.512 190.67 24.2347 190.115 23.68C189.581 23.1467 189.314 22.3253 189.314 21.216C189.314 20.32 189.485 19.2107 189.827 17.888C190.168 16.5653 190.595 15.2 191.108 13.792C190.937 13.7493 190.745 13.7173 190.531 13.696C190.339 13.6533 190.158 13.5893 189.987 13.504V12.64C190.264 12.6827 190.51 12.7147 190.723 12.736C190.958 12.7573 191.204 12.7787 191.46 12.8C191.908 11.6693 192.389 10.5707 192.901 9.504C193.435 8.43733 193.958 7.488 194.47 6.656C194.983 5.824 195.474 5.16267 195.943 4.672C196.413 4.18133 196.819 3.936 197.16 3.936C197.374 3.936 197.566 4.01067 197.737 4.16C197.908 4.30933 197.993 4.52267 197.993 4.8C197.993 5.20533 197.769 5.81333 197.321 6.624C196.894 7.41333 196.349 8.352 195.687 9.44C195.047 10.5067 194.428 11.6587 193.83 12.896C194.001 12.896 194.171 12.896 194.342 12.896C194.534 12.896 194.716 12.896 194.887 12.896C195.741 12.896 196.552 12.8853 197.321 12.864C198.089 12.8213 198.868 12.7573 199.658 12.672V13.568C198.484 13.696 197.406 13.792 196.424 13.856C195.463 13.92 194.566 13.952 193.734 13.952C193.67 13.952 193.595 13.952 193.51 13.952C193.446 13.952 193.381 13.952 193.317 13.952C192.848 15.04 192.442 16.1493 192.1 17.28C191.78 18.4107 191.62 19.5093 191.62 20.576C191.62 21.472 191.759 22.112 192.036 22.496C192.314 22.8587 192.762 23.04 193.381 23.04C194.449 23.04 195.538 22.5493 196.648 21.568C197.758 20.5867 198.719 19.264 199.53 17.6L199.979 17.92C199.445 19.1573 198.772 20.2773 197.961 21.28C197.15 22.2827 196.264 23.072 195.303 23.648C194.364 24.224 193.381 24.512 192.357 24.512Z" fill="var(--fill-0, #E10174)"/>
<path d="M206.119 25.824C204.902 25.824 203.749 25.6107 202.66 25.184C201.571 24.7573 200.685 24.1067 200.002 23.232C199.34 22.3787 199.009 21.3013 199.009 20C199.009 18.8693 199.244 17.984 199.714 17.344C200.205 16.704 200.813 16.256 201.539 16C202.265 15.744 202.97 15.616 203.653 15.616C202.991 16.2987 202.489 17.024 202.148 17.792C201.827 18.56 201.667 19.296 201.667 20C201.667 20.7467 201.849 21.4507 202.212 22.112C202.575 22.752 203.13 23.2747 203.877 23.68C204.624 24.0853 205.553 24.288 206.663 24.288C207.624 24.288 208.553 24.1173 209.449 23.776C210.367 23.456 211.115 22.9653 211.691 22.304C212.289 21.6427 212.588 20.8213 212.588 19.84C212.588 18.944 212.342 18.176 211.851 17.536C211.36 16.896 210.73 16.3307 209.962 15.84C209.193 15.328 208.371 14.848 207.496 14.4C206.642 13.9307 205.831 13.4293 205.062 12.896C204.293 12.3627 203.664 11.7547 203.172 11.072C202.681 10.368 202.436 9.52533 202.436 8.544C202.436 7.66933 202.649 6.74133 203.076 5.76C203.525 4.75733 204.144 3.81867 204.934 2.944C205.745 2.06933 206.717 1.36533 207.848 0.832001C209.001 0.277334 210.282 0 211.691 0C213.079 0 214.05 0.309333 214.605 0.927999C215.182 1.54667 215.47 2.336 215.47 3.296C215.47 4.08533 215.331 4.928 215.054 5.824C214.797 6.72 214.467 7.57333 214.061 8.384C213.677 9.17333 213.303 9.856 212.94 10.432C212.492 10.3253 212.161 10.144 211.947 9.888C211.755 9.632 211.659 9.30133 211.659 8.896C211.659 8.448 211.744 7.94667 211.915 7.392C212.107 6.816 212.321 6.22933 212.556 5.632C212.812 5.01333 213.036 4.42667 213.228 3.872C213.42 3.296 213.516 2.784 213.516 2.336C213.516 1.93067 213.399 1.62133 213.164 1.408C212.929 1.17333 212.46 1.056 211.755 1.056C210.752 1.056 209.823 1.29067 208.969 1.76C208.115 2.208 207.368 2.784 206.727 3.488C206.108 4.192 205.617 4.928 205.254 5.696C204.912 6.464 204.742 7.168 204.742 7.808C204.742 8.576 204.977 9.23733 205.446 9.792C205.937 10.3467 206.556 10.848 207.304 11.296C208.072 11.744 208.884 12.2027 209.738 12.672C210.592 13.12 211.392 13.6213 212.139 14.176C212.908 14.7307 213.527 15.392 213.997 16.16C214.488 16.9067 214.733 17.8347 214.733 18.944C214.733 20.0533 214.488 21.0347 213.997 21.888C213.506 22.7413 212.833 23.456 211.979 24.032C211.147 24.608 210.218 25.0453 209.193 25.344C208.168 25.664 207.144 25.824 206.119 25.824Z" fill="var(--fill-0, #E10174)"/>
<path d="M218.521 24.256C218.073 24.256 217.742 23.8933 217.529 23.168C217.315 22.464 217.208 21.6533 217.208 20.736C217.208 19.7333 217.379 18.5387 217.721 17.152C218.062 15.7653 218.511 14.304 219.066 12.768C219.621 11.2107 220.24 9.696 220.923 8.224C221.628 6.73067 222.343 5.38667 223.069 4.192C223.816 2.976 224.521 2.00533 225.183 1.28C225.845 0.554666 226.421 0.191999 226.912 0.191999C227.339 0.191999 227.659 0.437333 227.873 0.927999C228.086 1.39733 228.193 1.87733 228.193 2.368C228.193 2.96533 228.054 3.69067 227.777 4.544C227.52 5.376 227.158 6.272 226.688 7.232C226.218 8.192 225.663 9.14133 225.023 10.08C224.403 11.0187 223.731 11.872 223.005 12.64C222.279 13.408 221.521 14.0267 220.731 14.496C220.475 15.1787 220.262 15.8613 220.091 16.544C219.92 17.2053 219.792 17.8453 219.706 18.464C219.642 19.0827 219.61 19.6693 219.61 20.224C219.61 20.3733 219.61 20.5227 219.61 20.672C219.632 20.8 219.653 20.9173 219.674 21.024C219.824 20.64 220.016 20.1387 220.251 19.52C220.507 18.88 220.806 18.208 221.148 17.504C221.51 16.8 221.927 16.128 222.397 15.488C222.888 14.848 223.443 14.336 224.062 13.952C224.681 13.5467 225.364 13.344 226.111 13.344C226.795 13.344 227.328 13.504 227.713 13.824C228.118 14.1227 228.396 14.5067 228.545 14.976C228.716 15.4453 228.801 15.9253 228.801 16.416C228.801 17.0773 228.684 17.7173 228.449 18.336C228.236 18.9333 228.012 19.5093 227.777 20.064C227.563 20.5973 227.456 21.1093 227.456 21.6C227.456 21.984 227.542 22.2613 227.713 22.432C227.883 22.6027 228.097 22.688 228.353 22.688C228.823 22.688 229.367 22.4533 229.986 21.984C230.627 21.5147 231.246 20.896 231.844 20.128C232.463 19.3387 232.997 18.4747 233.445 17.536L233.925 18.016C233.456 19.0827 232.89 20.0533 232.228 20.928C231.566 21.8027 230.84 22.5067 230.05 23.04C229.282 23.552 228.46 23.808 227.585 23.808C226.795 23.808 226.197 23.5947 225.791 23.168C225.386 22.7627 225.183 22.2507 225.183 21.632C225.183 21.184 225.257 20.6933 225.407 20.16C225.578 19.6053 225.738 19.0507 225.887 18.496C226.037 17.92 226.111 17.3973 226.111 16.928C226.111 16.416 225.994 16.0533 225.759 15.84C225.546 15.6267 225.279 15.52 224.959 15.52C224.425 15.52 223.944 15.7333 223.517 16.16C223.09 16.5867 222.695 17.1307 222.332 17.792C221.991 18.4533 221.671 19.1573 221.372 19.904C221.073 20.6293 220.774 21.3333 220.475 22.016C220.197 22.6773 219.899 23.2107 219.578 23.616C219.258 24.0427 218.906 24.256 218.521 24.256ZM221.34 12.704C221.895 12.2133 222.439 11.6267 222.973 10.944C223.507 10.24 223.998 9.504 224.446 8.736C224.916 7.968 225.321 7.22133 225.663 6.496C226.005 5.77067 226.272 5.12 226.464 4.544C226.677 3.968 226.795 3.52 226.816 3.2C226.816 3.15733 226.805 3.12533 226.784 3.104C226.784 3.08267 226.773 3.072 226.752 3.072C226.624 3.072 226.346 3.34933 225.919 3.904C225.492 4.43733 224.991 5.16267 224.414 6.08C223.859 6.99733 223.304 8.032 222.749 9.184C222.194 10.336 221.724 11.5093 221.34 12.704Z" fill="var(--fill-0, #E10174)"/>
<path d="M235.107 24.064C234.168 24.064 233.517 23.7547 233.154 23.136C232.791 22.5387 232.609 21.856 232.609 21.088C232.609 20.4053 232.716 19.712 232.93 19.008C233.143 18.304 233.431 17.6427 233.794 17.024C234.157 16.4053 234.563 15.904 235.011 15.52C235.46 15.136 235.919 14.944 236.388 14.944C236.516 14.944 236.666 14.976 236.837 15.04C237.029 15.0827 237.168 15.1467 237.253 15.232C237.018 15.488 236.762 15.8507 236.484 16.32C236.228 16.7893 235.983 17.3013 235.748 17.856C235.534 18.3893 235.353 18.9333 235.203 19.488C235.075 20.0213 235.011 20.512 235.011 20.96C235.011 21.4507 235.097 21.8347 235.267 22.112C235.438 22.3893 235.716 22.528 236.1 22.528C236.527 22.528 237.029 22.304 237.605 21.856C238.203 21.3867 238.769 20.8213 239.303 20.16C238.641 19.584 238.15 18.9227 237.829 18.176C237.53 17.408 237.381 16.544 237.381 15.584C237.381 15.0507 237.498 14.4853 237.733 13.888C237.968 13.2907 238.331 12.7893 238.822 12.384C239.313 11.9787 239.954 11.776 240.744 11.776C241.64 11.776 242.259 12.032 242.601 12.544C242.964 13.0347 243.145 13.632 243.145 14.336C243.145 15.1253 242.932 16.0213 242.505 17.024C242.099 18.0053 241.608 18.944 241.032 19.84C241.331 20.0107 241.662 20.096 242.025 20.096C242.345 20.096 242.729 20.0213 243.178 19.872C243.626 19.7227 244.053 19.4773 244.459 19.136C244.886 18.7733 245.227 18.304 245.483 17.728L245.996 18.112C245.547 19.1573 244.928 19.9253 244.138 20.416C243.37 20.8853 242.622 21.12 241.897 21.12C241.619 21.12 241.341 21.0987 241.064 21.056C240.786 20.992 240.53 20.9067 240.295 20.8C239.569 21.696 238.747 22.464 237.829 23.104C236.933 23.744 236.025 24.064 235.107 24.064ZM240.039 19.2C240.573 18.4533 241.011 17.6533 241.352 16.8C241.715 15.9253 241.897 15.1253 241.897 14.4C241.897 13.8667 241.811 13.4827 241.64 13.248C241.491 12.992 241.277 12.864 241 12.864C240.573 12.864 240.146 13.1627 239.719 13.76C239.292 14.336 239.078 15.072 239.078 15.968C239.078 16.48 239.153 17.056 239.303 17.696C239.473 18.3147 239.719 18.816 240.039 19.2Z" fill="var(--fill-0, #E10174)"/>
<path d="M243.233 32C243.062 32 242.892 31.936 242.721 31.808C242.529 31.68 242.369 31.5413 242.24 31.392C242.112 31.2427 242.048 31.136 242.048 31.072C242.497 29.6853 242.892 28.4693 243.233 27.424C243.575 26.4 243.884 25.408 244.162 24.448C244.418 23.488 244.664 22.4533 244.898 21.344C245.133 20.2133 245.368 18.8907 245.603 17.376C245.838 15.84 246.083 13.9733 246.34 11.776C246.382 11.5413 246.436 11.3707 246.5 11.264C246.564 11.1573 246.756 11.104 247.076 11.104C247.695 11.104 248.144 11.2747 248.421 11.616C248.699 11.9573 248.838 12.3307 248.838 12.736C248.838 12.9707 248.784 13.3973 248.677 14.016C248.592 14.6133 248.464 15.3387 248.293 16.192C248.677 15.5307 249.136 14.9013 249.67 14.304C250.204 13.6853 250.802 13.1733 251.464 12.768C252.125 12.3627 252.841 12.16 253.609 12.16C254.634 12.16 255.467 12.512 256.107 13.216C256.769 13.8987 257.1 14.8053 257.1 15.936C257.1 16.768 256.908 17.6533 256.524 18.592C256.161 19.5093 255.638 20.384 254.954 21.216C254.292 22.0267 253.481 22.688 252.52 23.2C251.581 23.7333 250.546 24 249.414 24C248.774 24 248.261 23.9147 247.877 23.744C247.493 23.5947 247.3 23.4347 247.3 23.264C247.3 23.136 247.375 23.0613 247.525 23.04C247.695 22.9973 247.877 22.976 248.069 22.976C249.03 22.976 249.905 22.7733 250.695 22.368C251.506 21.9413 252.211 21.3973 252.809 20.736C253.428 20.0747 253.897 19.36 254.218 18.592C254.559 17.824 254.73 17.056 254.73 16.288C254.73 15.648 254.581 15.0933 254.282 14.624C254.004 14.1333 253.556 13.888 252.937 13.888C252.382 13.888 251.827 14.0693 251.271 14.432C250.738 14.7733 250.236 15.2107 249.766 15.744C249.297 16.256 248.88 16.8 248.517 17.376C248.154 17.952 247.877 18.464 247.685 18.912C247.279 20.384 246.895 21.824 246.532 23.232C246.19 24.6613 245.859 25.9733 245.539 27.168C245.24 28.384 244.941 29.3973 244.642 30.208C244.322 31.0187 244.012 31.552 243.714 31.808C243.564 31.936 243.404 32 243.233 32Z" fill="var(--fill-0, #E10174)"/>
<path d="M264.117 10.88C264.117 14.0487 261.902 15.92 258.761 15.92C261.902 15.92 264.117 17.9512 264.117 21.12C264.117 17.9512 266.333 15.92 269.474 15.92C266.333 15.92 264.117 14.0487 264.117 10.88Z" fill="var(--fill-0, #E10174)"/>
<path d="M5.12398 10.88C5.12398 13.9114 3.00452 15.7015 0 15.7015C3.00452 15.7015 5.12398 17.6446 5.12398 20.676C5.12398 17.6446 7.24345 15.7015 10.248 15.7015C7.24345 15.7015 5.12398 13.9114 5.12398 10.88Z" fill="var(--fill-0, #E10174)"/>
</g>
</svg>
