<svg preserveAspectRatio="none" width="100%" height="100%" overflow="visible" style="display: block;" viewBox="0 0 18.8128 17.2176" fill="none" xmlns="http://www.w3.org/2000/svg">
<g id="Group 1000007697">
<path id="Vector" d="M7.01149 6.21875H11.8014C12.64 6.21875 13.4705 6.38394 14.2454 6.7049C15.0202 7.02585 15.7242 7.49627 16.3173 8.08931C16.9103 8.68235 17.3807 9.38639 17.7017 10.1612C18.0227 10.9361 18.1878 11.7666 18.1878 12.6052V16.5926H0.625V12.5969C0.627215 10.9045 1.30105 9.28225 2.49851 8.08636C3.69597 6.89046 5.31913 6.21875 7.01149 6.21875Z" stroke="var(--stroke-0, black)" strokeWidth="1.25" strokeMiterlimit="10"/>
<path id="Vector_2" d="M2.375 8.21094C2.97091 8.8431 3.68999 9.34649 4.4879 9.6901C5.28581 10.0337 6.14565 10.2102 7.0144 10.2088H11.7959C12.6647 10.2102 13.5245 10.0337 14.3224 9.6901C15.1203 9.34649 15.8394 8.8431 16.4353 8.21094" stroke="var(--stroke-0, black)" strokeWidth="1.25" strokeMiterlimit="10"/>
<path id="Vector_3" d="M4.61719 7.01149V5.41487C4.6194 4.1452 5.12475 2.92816 6.02255 2.03036C6.92034 1.13257 8.13738 0.627213 9.40705 0.625003C10.6767 0.627213 11.8938 1.13257 12.7916 2.03036C13.6894 2.92816 14.1947 4.1452 14.1969 5.41487V7.01149" stroke="var(--stroke-0, black)" strokeWidth="1.25" strokeMiterlimit="10"/>
<path id="Vector_4" d="M4.5148 16.5923C4.58547 16.3194 4.61921 16.0383 4.61511 15.7564C4.61511 14.9095 4.27868 14.0973 3.67983 13.4984C3.08098 12.8996 2.26877 12.5632 1.42187 12.5632C1.13934 12.557 0.857501 12.5936 0.585937 12.6718" stroke="var(--stroke-0, black)" strokeWidth="1.25" strokeMiterlimit="10"/>
<path id="Vector_5" d="M18.183 12.7025C17.9249 12.6284 17.6574 12.5918 17.3889 12.5938C16.542 12.5938 15.7298 12.9303 15.1309 13.5291C14.5321 14.128 14.1956 14.9402 14.1956 15.7871C14.1915 16.069 14.2253 16.3501 14.296 16.623" stroke="var(--stroke-0, black)" strokeWidth="1.25" strokeMiterlimit="10"/>
</g>
</svg>
