<svg preserveAspectRatio="none" width="100%" height="100%" overflow="visible" style="display: block;" viewBox="0 0 202.105 24" fill="none" xmlns="http://www.w3.org/2000/svg">
<g id="logo">
<path d="M14.6514 19.368C13.4665 19.368 12.4977 19.08 11.7451 18.504C11.0086 17.928 10.4641 17.192 10.1119 16.296C9.7756 15.384 9.60747 14.44 9.60747 13.464C9.60747 12.2 9.79962 10.936 10.1839 9.672C10.5682 8.392 11.0966 7.176 11.7692 6.024C12.4417 4.856 13.2023 3.824 14.0509 2.928C14.9156 2.032 15.8283 1.328 16.7891 0.815999C17.7658 0.288 18.7346 0.0239997 19.6953 0.0239997C20.3839 0.0239997 20.9523 0.184 21.4006 0.503999C21.865 0.824 22.0972 1.376 22.0972 2.16C22.0972 2.64 22.0091 3.176 21.833 3.768C21.6729 4.36 21.4487 4.928 21.1605 5.472C20.8882 6.016 20.576 6.464 20.2237 6.816C19.8875 7.168 19.5432 7.344 19.1909 7.344C19.0468 7.344 18.8947 7.296 18.7346 7.2C18.5744 7.088 18.4303 6.912 18.3022 6.672C18.5424 6.4 18.8066 6.064 19.0949 5.664C19.3991 5.264 19.6873 4.84 19.9595 4.392C20.2317 3.944 20.4559 3.512 20.632 3.096C20.8082 2.664 20.8962 2.28 20.8962 1.944C20.8962 1.656 20.8082 1.424 20.632 1.248C20.4719 1.056 20.1837 0.96 19.7674 0.96C19.0788 0.96 18.3583 1.232 17.6057 1.776C16.8691 2.32 16.1566 3.048 15.468 3.96C14.7795 4.856 14.155 5.864 13.5946 6.984C13.0341 8.088 12.5938 9.232 12.2735 10.416C11.9533 11.584 11.7932 12.696 11.7932 13.752C11.7932 14.52 11.9053 15.256 12.1294 15.96C12.3536 16.664 12.7219 17.232 13.2343 17.664C13.7467 18.112 14.4112 18.336 15.2278 18.336C16.0925 18.336 16.9492 18.096 17.7978 17.616C18.6465 17.136 19.4231 16.504 20.1277 15.72C20.8482 14.936 21.4247 14.088 21.857 13.176L22.3854 13.536C21.825 14.592 21.1605 15.568 20.3919 16.464C19.6233 17.344 18.7506 18.048 17.7738 18.576C16.8131 19.104 15.7723 19.368 14.6514 19.368Z" fill="var(--fill-0, #E10174)"/>
<path d="M23.1119 18.048C22.4073 18.048 21.9189 17.816 21.6467 17.352C21.3745 16.904 21.2384 16.392 21.2384 15.816C21.2384 15.304 21.3185 14.784 21.4786 14.256C21.6387 13.728 21.8549 13.232 22.1271 12.768C22.3993 12.304 22.7036 11.928 23.0398 11.64C23.3761 11.352 23.7203 11.208 24.0726 11.208C24.1687 11.208 24.2808 11.232 24.4089 11.28C24.553 11.312 24.6571 11.36 24.7211 11.424C24.545 11.616 24.3528 11.888 24.1447 12.24C23.9525 12.592 23.7684 12.976 23.5922 13.392C23.4321 13.792 23.296 14.2 23.1839 14.616C23.0879 15.016 23.0398 15.384 23.0398 15.72C23.0398 16.088 23.1039 16.376 23.232 16.584C23.3601 16.792 23.5682 16.896 23.8564 16.896C24.1767 16.896 24.553 16.728 24.9853 16.392C25.4337 16.04 25.858 15.616 26.2583 15.12C25.7619 14.688 25.3936 14.192 25.1535 13.632C24.9293 13.056 24.8172 12.408 24.8172 11.688C24.8172 11.288 24.9053 10.864 25.0814 10.416C25.2575 9.968 25.5297 9.592 25.898 9.288C26.2663 8.984 26.7467 8.832 27.3392 8.832C28.0117 8.832 28.476 9.024 28.7322 9.408C29.0045 9.776 29.1406 10.224 29.1406 10.752C29.1406 11.344 28.9804 12.016 28.6602 12.768C28.3559 13.504 27.9877 14.208 27.5553 14.88C27.7795 15.008 28.0277 15.072 28.2999 15.072C28.5401 15.072 28.8283 15.016 29.1646 14.904C29.5008 14.792 29.8211 14.608 30.1253 14.352C30.4456 14.08 30.7018 13.728 30.8939 13.296L31.2782 13.584C30.942 14.368 30.4776 14.944 29.8851 15.312C29.3087 15.664 28.7483 15.84 28.2038 15.84C27.9957 15.84 27.7875 15.824 27.5793 15.792C27.3712 15.744 27.179 15.68 27.0029 15.6C26.4585 16.272 25.842 16.848 25.1535 17.328C24.4809 17.808 23.8004 18.048 23.1119 18.048ZM26.8107 14.4C27.2111 13.84 27.5393 13.24 27.7955 12.6C28.0677 11.944 28.2038 11.344 28.2038 10.8C28.2038 10.4 28.1398 10.112 28.0117 9.936C27.8996 9.744 27.7395 9.648 27.5313 9.648C27.2111 9.648 26.8908 9.872 26.5706 10.32C26.2503 10.752 26.0902 11.304 26.0902 11.976C26.0902 12.36 26.1462 12.792 26.2583 13.272C26.3864 13.736 26.5706 14.112 26.8107 14.4Z" fill="var(--fill-0, #E10174)"/>
<path d="M43.0171 18.024C42.4086 18.024 41.9602 17.84 41.672 17.472C41.3838 17.12 41.2397 16.696 41.2397 16.2C41.2397 15.816 41.2957 15.44 41.4078 15.072C41.5199 14.688 41.632 14.312 41.7441 13.944C41.8722 13.576 41.9362 13.24 41.9362 12.936C41.9362 12.648 41.8722 12.448 41.7441 12.336C41.632 12.224 41.4959 12.168 41.3358 12.168C40.9515 12.168 40.5191 12.464 40.0387 13.056C39.5584 13.632 38.9499 14.464 38.2133 15.552C37.9571 15.936 37.7249 16.336 37.5168 16.752C37.3086 17.168 37.1165 17.528 36.9403 17.832C36.8122 17.832 36.6361 17.808 36.4119 17.76C36.1878 17.712 35.9876 17.648 35.8115 17.568C35.6513 17.488 35.5713 17.384 35.5713 17.256C35.5713 17.112 35.6513 16.832 35.8115 16.416C35.9716 16 36.1557 15.512 36.3639 14.952C36.572 14.392 36.7482 13.84 36.8923 13.296C37.0524 12.736 37.1325 12.264 37.1325 11.88C37.1325 11.64 37.0925 11.456 37.0124 11.328C36.9323 11.184 36.7962 11.112 36.6041 11.112C36.2678 11.112 35.8595 11.32 35.3791 11.736C34.8987 12.136 34.3944 12.664 33.8659 13.32C33.3375 13.976 32.8411 14.712 32.3768 15.528C31.9284 16.328 31.5602 17.128 31.2719 17.928C31.0958 17.928 30.8876 17.896 30.6474 17.832C30.4073 17.768 30.1991 17.688 30.023 17.592C29.8468 17.496 29.7587 17.408 29.7587 17.328C29.7587 17.28 29.8228 17.032 29.9509 16.584C30.079 16.136 30.2391 15.584 30.4313 14.928C30.6074 14.272 30.7755 13.6 30.9357 12.912C31.1118 12.224 31.2479 11.616 31.344 11.088C31.408 10.944 31.5762 10.808 31.8484 10.68C32.1206 10.552 32.3688 10.488 32.593 10.488C32.8171 10.488 32.9933 10.552 33.1214 10.68C33.2655 10.808 33.3375 10.984 33.3375 11.208C33.3375 11.384 33.2975 11.664 33.2174 12.048C33.1374 12.416 33.0333 12.832 32.9052 13.296C33.2415 12.816 33.6017 12.344 33.986 11.88C34.3703 11.4 34.7706 10.968 35.187 10.584C35.6193 10.2 36.0436 9.896 36.46 9.672C36.8923 9.432 37.3166 9.312 37.7329 9.312C38.2934 9.312 38.6697 9.512 38.8618 9.912C39.07 10.312 39.1741 10.76 39.1741 11.256C39.1741 11.528 39.142 11.808 39.078 12.096C39.03 12.384 38.9659 12.656 38.8858 12.912C38.8218 13.168 38.7417 13.424 38.6457 13.68C38.9499 13.184 39.2942 12.712 39.6785 12.264C40.0628 11.816 40.4711 11.464 40.9034 11.208C41.3358 10.936 41.8001 10.8 42.2965 10.8C42.889 10.8 43.2973 10.976 43.5215 11.328C43.7456 11.68 43.8577 12.072 43.8577 12.504C43.8577 12.92 43.7857 13.368 43.6415 13.848C43.5134 14.312 43.3773 14.76 43.2332 15.192C43.0891 15.608 43.0171 15.968 43.0171 16.272C43.0171 16.448 43.0571 16.608 43.1372 16.752C43.2332 16.896 43.4094 16.968 43.6656 16.968C44.0979 16.968 44.5142 16.768 44.9145 16.368C45.3148 15.968 45.6831 15.48 46.0194 14.904C46.3557 14.312 46.6439 13.752 46.8841 13.224L47.2443 13.656C46.9881 14.328 46.6599 15 46.2596 15.672C45.8593 16.344 45.3869 16.904 44.8425 17.352C44.2981 17.8 43.6896 18.024 43.0171 18.024Z" fill="var(--fill-0, #E10174)"/>
<path d="M45.1522 24C45.0241 24 44.896 23.952 44.7679 23.856C44.6238 23.76 44.5037 23.656 44.4076 23.544C44.3115 23.432 44.2635 23.352 44.2635 23.304C44.5998 22.264 44.896 21.352 45.1522 20.568C45.4084 19.8 45.6406 19.056 45.8487 18.336C46.0409 17.616 46.225 16.84 46.4011 16.008C46.5773 15.16 46.7534 14.168 46.9296 13.032C47.1057 11.88 47.2898 10.48 47.482 8.832C47.514 8.656 47.554 8.528 47.6021 8.448C47.6501 8.368 47.7942 8.328 48.0344 8.328C48.4988 8.328 48.835 8.456 49.0432 8.712C49.2514 8.968 49.3554 9.248 49.3554 9.552C49.3554 9.728 49.3154 10.048 49.2354 10.512C49.1713 10.96 49.0752 11.504 48.9471 12.144C49.2354 11.648 49.5796 11.176 49.9799 10.728C50.3802 10.264 50.8286 9.88 51.325 9.576C51.8214 9.272 52.3578 9.12 52.9342 9.12C53.7028 9.12 54.3273 9.384 54.8077 9.912C55.3041 10.424 55.5523 11.104 55.5523 11.952C55.5523 12.576 55.4082 13.24 55.1199 13.944C54.8477 14.632 54.4554 15.288 53.943 15.912C53.4466 16.52 52.8382 17.016 52.1176 17.4C51.413 17.8 50.6364 18 49.7878 18C49.3074 18 48.9231 17.936 48.6349 17.808C48.3467 17.696 48.2026 17.576 48.2026 17.448C48.2026 17.352 48.2586 17.296 48.3707 17.28C48.4988 17.248 48.6349 17.232 48.779 17.232C49.4996 17.232 50.1561 17.08 50.7485 16.776C51.357 16.456 51.8854 16.048 52.3338 15.552C52.7981 15.056 53.1504 14.52 53.3906 13.944C53.6468 13.368 53.7749 12.792 53.7749 12.216C53.7749 11.736 53.6628 11.32 53.4386 10.968C53.2305 10.6 52.8942 10.416 52.4298 10.416C52.0135 10.416 51.5972 10.552 51.1809 10.824C50.7806 11.08 50.4043 11.408 50.052 11.808C49.6997 12.192 49.3875 12.6 49.1153 13.032C48.843 13.464 48.6349 13.848 48.4908 14.184C48.1865 15.288 47.8983 16.368 47.6261 17.424C47.3699 18.496 47.1217 19.48 46.8815 20.376C46.6573 21.288 46.4332 22.048 46.209 22.656C45.9688 23.264 45.7366 23.664 45.5125 23.856C45.4004 23.952 45.2803 24 45.1522 24Z" fill="var(--fill-0, #E10174)"/>
<path d="M59.224 18.336C58.2152 18.336 57.4466 18.064 56.9182 17.52C56.3898 16.976 56.1256 16.296 56.1256 15.48C56.1256 14.76 56.3017 14.008 56.654 13.224C57.0223 12.424 57.5107 11.68 58.1192 10.992C58.7276 10.288 59.3921 9.72 60.1127 9.288C60.8493 8.84 61.5778 8.616 62.2984 8.616C62.6987 8.616 63.075 8.72 63.4273 8.928C63.7956 9.136 63.9797 9.552 63.9797 10.176C63.9797 10.784 63.7956 11.36 63.4273 11.904C63.075 12.432 62.6026 12.904 62.0102 13.32C61.4337 13.736 60.7852 14.08 60.0647 14.352C59.3601 14.608 58.6556 14.768 57.951 14.832C57.935 14.928 57.919 15.024 57.903 15.12C57.887 15.216 57.879 15.344 57.879 15.504C57.879 15.632 57.895 15.808 57.927 16.032C57.975 16.24 58.0551 16.456 58.1672 16.68C58.2953 16.888 58.4874 17.064 58.7436 17.208C58.9998 17.352 59.3361 17.424 59.7524 17.424C60.425 17.424 61.0975 17.232 61.77 16.848C62.4585 16.464 63.099 15.96 63.6915 15.336C64.284 14.696 64.7803 13.992 65.1807 13.224L65.589 13.56C65.1566 14.52 64.6042 15.36 63.9317 16.08C63.2592 16.784 62.5146 17.336 61.6979 17.736C60.8973 18.136 60.0727 18.336 59.224 18.336ZM58.1672 14.088C58.5835 14.008 59.0559 13.848 59.5843 13.608C60.1127 13.352 60.6171 13.04 61.0975 12.672C61.5779 12.288 61.9702 11.872 62.2744 11.424C62.5946 10.976 62.7548 10.52 62.7548 10.056C62.7548 9.88 62.7227 9.752 62.6587 9.672C62.5946 9.592 62.4826 9.552 62.3224 9.552C61.9381 9.552 61.5378 9.696 61.1215 9.984C60.7212 10.256 60.3209 10.616 59.9206 11.064C59.5363 11.496 59.192 11.984 58.8878 12.528C58.5835 13.056 58.3433 13.576 58.1672 14.088Z" fill="var(--fill-0, #E10174)"/>
<path d="M66.9703 18.384C66.2658 18.384 65.7053 18.176 65.289 17.76C64.8887 17.36 64.6885 16.744 64.6885 15.912C64.6885 15.24 64.8166 14.408 65.0728 13.416C65.329 12.424 65.6493 11.4 66.0336 10.344C65.9055 10.312 65.7614 10.288 65.6012 10.272C65.4571 10.24 65.321 10.192 65.1929 10.128V9.48C65.4011 9.512 65.5852 9.536 65.7454 9.552C65.9215 9.568 66.1056 9.584 66.2978 9.6C66.6341 8.752 66.9943 7.928 67.3786 7.128C67.7789 6.328 68.1713 5.616 68.5556 4.992C68.9398 4.368 69.3081 3.872 69.6604 3.504C70.0127 3.136 70.3169 2.952 70.5731 2.952C70.7332 2.952 70.8774 3.008 71.0055 3.12C71.1336 3.232 71.1976 3.392 71.1976 3.6C71.1976 3.904 71.0295 4.36 70.6932 4.968C70.373 5.56 69.9646 6.264 69.4683 7.08C68.9879 7.88 68.5235 8.744 68.0752 9.672C68.2033 9.672 68.3314 9.672 68.4595 9.672C68.6036 9.672 68.7397 9.672 68.8678 9.672C69.5083 9.672 70.1168 9.664 70.6932 9.648C71.2697 9.616 71.8541 9.568 72.4466 9.504V10.176C71.5659 10.272 70.7573 10.344 70.0207 10.392C69.3001 10.44 68.6276 10.464 68.0031 10.464C67.9551 10.464 67.899 10.464 67.835 10.464C67.7869 10.464 67.7389 10.464 67.6909 10.464C67.3386 11.28 67.0344 12.112 66.7782 12.96C66.538 13.808 66.4179 14.632 66.4179 15.432C66.4179 16.104 66.522 16.584 66.7301 16.872C66.9383 17.144 67.2745 17.28 67.7389 17.28C68.5395 17.28 69.3562 16.912 70.1888 16.176C71.0215 15.44 71.742 14.448 72.3505 13.2L72.6868 13.44C72.2864 14.368 71.7821 15.208 71.1736 15.96C70.5651 16.712 69.9006 17.304 69.18 17.736C68.4755 18.168 67.7389 18.384 66.9703 18.384Z" fill="var(--fill-0, #E10174)"/>
<path d="M73.7851 17.976C73.1126 17.976 72.6082 17.768 72.272 17.352C71.9357 16.952 71.7676 16.456 71.7676 15.864C71.7676 15.496 71.8316 15.032 71.9597 14.472C72.0878 13.912 72.264 13.328 72.4881 12.72C72.7283 12.096 73.0005 11.512 73.3048 10.968C73.609 10.424 73.9293 9.984 74.2655 9.648C74.6178 9.296 74.9621 9.12 75.2983 9.12C75.4745 9.12 75.6266 9.176 75.7547 9.288C75.8988 9.4 75.9708 9.56 75.9708 9.768C75.9708 9.976 75.8427 10.288 75.5865 10.704C75.3464 11.12 75.0581 11.608 74.7219 12.168C74.3856 12.712 74.0894 13.28 73.8332 13.872C73.593 14.464 73.4729 15.032 73.4729 15.576C73.4729 16.104 73.569 16.456 73.7611 16.632C73.9533 16.808 74.2335 16.896 74.6018 16.896C75.1462 16.896 75.7306 16.624 76.3551 16.08C76.9956 15.536 77.6602 14.584 78.3487 13.224L78.6609 13.56C78.1325 14.968 77.428 16.056 76.5473 16.824C75.6826 17.592 74.7619 17.976 73.7851 17.976ZM76.6434 7.08C76.3551 7.08 76.0909 7.008 75.8507 6.864C75.6266 6.72 75.5145 6.504 75.5145 6.216C75.5145 5.832 75.7146 5.512 76.1149 5.256C76.5313 4.984 76.9556 4.848 77.3879 4.848C77.6601 4.848 77.8843 4.912 78.0605 5.04C78.2366 5.168 78.3247 5.384 78.3247 5.688C78.3247 6.024 78.1485 6.344 77.7963 6.648C77.444 6.936 77.0597 7.08 76.6434 7.08Z" fill="var(--fill-0, #E10174)"/>
<path d="M80.1209 18.384C79.4163 18.384 78.8559 18.176 78.4396 17.76C78.0393 17.36 77.8391 16.744 77.8391 15.912C77.8391 15.24 77.9672 14.408 78.2234 13.416C78.4796 12.424 78.7999 11.4 79.1842 10.344C79.0561 10.312 78.912 10.288 78.7518 10.272C78.6077 10.24 78.4716 10.192 78.3435 10.128V9.48C78.5517 9.512 78.7358 9.536 78.8959 9.552C79.0721 9.568 79.2562 9.584 79.4484 9.6C79.7846 8.752 80.1449 7.928 80.5292 7.128C80.9295 6.328 81.3218 5.616 81.7061 4.992C82.0904 4.368 82.4587 3.872 82.811 3.504C83.1633 3.136 83.4675 2.952 83.7237 2.952C83.8838 2.952 84.0279 3.008 84.156 3.12C84.2841 3.232 84.3482 3.392 84.3482 3.6C84.3482 3.904 84.1801 4.36 83.8438 4.968C83.5235 5.56 83.1152 6.264 82.6188 7.08C82.1385 7.88 81.6741 8.744 81.2258 9.672C81.3539 9.672 81.482 9.672 81.6101 9.672C81.7542 9.672 81.8903 9.672 82.0184 9.672C82.6589 9.672 83.2673 9.664 83.8438 9.648C84.4202 9.616 85.0047 9.568 85.5972 9.504V10.176C84.7165 10.272 83.9078 10.344 83.1713 10.392C82.4507 10.44 81.7782 10.464 81.1537 10.464C81.1057 10.464 81.0496 10.464 80.9856 10.464C80.9375 10.464 80.8895 10.464 80.8415 10.464C80.4892 11.28 80.1849 12.112 79.9287 12.96C79.6886 13.808 79.5685 14.632 79.5685 15.432C79.5685 16.104 79.6725 16.584 79.8807 16.872C80.0889 17.144 80.4251 17.28 80.8895 17.28C81.6901 17.28 82.5068 16.912 83.3394 16.176C84.1721 15.44 84.8926 14.448 85.5011 13.2L85.8373 13.44C85.437 14.368 84.9326 15.208 84.3242 15.96C83.7157 16.712 83.0512 17.304 82.3306 17.736C81.6261 18.168 80.8895 18.384 80.1209 18.384Z" fill="var(--fill-0, #E10174)"/>
<path d="M86.9357 17.976C86.2632 17.976 85.7588 17.768 85.4225 17.352C85.0863 16.952 84.9182 16.456 84.9182 15.864C84.9182 15.496 84.9822 15.032 85.1103 14.472C85.2384 13.912 85.4145 13.328 85.6387 12.72C85.8789 12.096 86.1511 11.512 86.4553 10.968C86.7596 10.424 87.0798 9.984 87.4161 9.648C87.7684 9.296 88.1126 9.12 88.4489 9.12C88.625 9.12 88.7771 9.176 88.9052 9.288C89.0494 9.4 89.1214 9.56 89.1214 9.768C89.1214 9.976 88.9933 10.288 88.7371 10.704C88.4969 11.12 88.2087 11.608 87.8725 12.168C87.5362 12.712 87.24 13.28 86.9838 13.872C86.7436 14.464 86.6235 15.032 86.6235 15.576C86.6235 16.104 86.7195 16.456 86.9117 16.632C87.1038 16.808 87.3841 16.896 87.7524 16.896C88.2968 16.896 88.8812 16.624 89.5057 16.08C90.1462 15.536 90.8107 14.584 91.4993 13.224L91.8115 13.56C91.2831 14.968 90.5786 16.056 89.6979 16.824C88.8332 17.592 87.9125 17.976 86.9357 17.976ZM89.7939 7.08C89.5057 7.08 89.2415 7.008 89.0013 6.864C88.7772 6.72 88.6651 6.504 88.6651 6.216C88.6651 5.832 88.8652 5.512 89.2655 5.256C89.6819 4.984 90.1062 4.848 90.5385 4.848C90.8107 4.848 91.0349 4.912 91.211 5.04C91.3872 5.168 91.4753 5.384 91.4753 5.688C91.4753 6.024 91.2991 6.344 90.9468 6.648C90.5946 6.936 90.2103 7.08 89.7939 7.08Z" fill="var(--fill-0, #E10174)"/>
<path d="M92.7431 18.048C92.0385 18.048 91.5501 17.816 91.2779 17.352C91.0057 16.904 90.8696 16.392 90.8696 15.816C90.8696 15.304 90.9497 14.784 91.1098 14.256C91.2699 13.728 91.4861 13.232 91.7583 12.768C92.0305 12.304 92.3348 11.928 92.671 11.64C93.0073 11.352 93.3515 11.208 93.7038 11.208C93.7999 11.208 93.912 11.232 94.0401 11.28C94.1842 11.312 94.2883 11.36 94.3523 11.424C94.1762 11.616 93.984 11.888 93.7759 12.24C93.5837 12.592 93.3996 12.976 93.2234 13.392C93.0633 13.792 92.9272 14.2 92.8151 14.616C92.7191 15.016 92.671 15.384 92.671 15.72C92.671 16.088 92.7351 16.376 92.8632 16.584C92.9913 16.792 93.1994 16.896 93.4876 16.896C93.8079 16.896 94.1842 16.728 94.6165 16.392C95.0649 16.04 95.4892 15.616 95.8895 15.12C95.3931 14.688 95.0248 14.192 94.7847 13.632C94.5605 13.056 94.4484 12.408 94.4484 11.688C94.4484 11.288 94.5365 10.864 94.7126 10.416C94.8887 9.968 95.161 9.592 95.5292 9.288C95.8975 8.984 96.3779 8.832 96.9704 8.832C97.6429 8.832 98.1072 9.024 98.3634 9.408C98.6357 9.776 98.7718 10.224 98.7718 10.752C98.7718 11.344 98.6116 12.016 98.2914 12.768C97.9872 13.504 97.6189 14.208 97.1865 14.88C97.4107 15.008 97.6589 15.072 97.9311 15.072C98.1713 15.072 98.4595 15.016 98.7958 14.904C99.132 14.792 99.4523 14.608 99.7565 14.352C100.077 14.08 100.333 13.728 100.525 13.296L100.909 13.584C100.573 14.368 100.109 14.944 99.5163 15.312C98.9399 15.664 98.3795 15.84 97.835 15.84C97.6269 15.84 97.4187 15.824 97.2105 15.792C97.0024 15.744 96.8102 15.68 96.6341 15.6C96.0897 16.272 95.4732 16.848 94.7847 17.328C94.1121 17.808 93.4316 18.048 92.7431 18.048ZM96.4419 14.4C96.8423 13.84 97.1705 13.24 97.4267 12.6C97.6989 11.944 97.835 11.344 97.835 10.8C97.835 10.4 97.771 10.112 97.6429 9.936C97.5308 9.744 97.3707 9.648 97.1625 9.648C96.8423 9.648 96.522 9.872 96.2018 10.32C95.8815 10.752 95.7214 11.304 95.7214 11.976C95.7214 12.36 95.7774 12.792 95.8895 13.272C96.0176 13.736 96.2018 14.112 96.4419 14.4Z" fill="var(--fill-0, #E10174)"/>
<path d="M108.205 17.76C107.612 17.76 107.156 17.608 106.836 17.304C106.532 17 106.379 16.616 106.379 16.152C106.379 15.816 106.435 15.472 106.548 15.12C106.66 14.752 106.772 14.384 106.884 14.016C106.996 13.632 107.052 13.264 107.052 12.912C107.052 12.528 106.964 12.264 106.788 12.12C106.612 11.976 106.403 11.904 106.163 11.904C105.683 11.904 105.186 12.104 104.674 12.504C104.178 12.904 103.689 13.408 103.209 14.016C102.729 14.608 102.28 15.232 101.864 15.888C101.448 16.544 101.087 17.128 100.783 17.64C100.495 17.64 100.223 17.592 99.9664 17.496C99.7102 17.4 99.494 17.232 99.3179 16.992C99.3339 16.912 99.43 16.672 99.6061 16.272C99.7662 15.856 99.9504 15.36 100.159 14.784C100.367 14.192 100.551 13.584 100.711 12.96C100.887 12.336 100.975 11.76 100.975 11.232C101.087 11.12 101.255 11 101.48 10.872C101.704 10.744 101.936 10.68 102.176 10.68C102.689 10.68 102.945 10.912 102.945 11.376C102.945 11.584 102.897 11.92 102.801 12.384C102.705 12.832 102.576 13.328 102.416 13.872C102.833 13.28 103.297 12.712 103.809 12.168C104.322 11.608 104.858 11.152 105.419 10.8C105.979 10.448 106.548 10.272 107.124 10.272C107.78 10.272 108.261 10.504 108.565 10.968C108.885 11.416 109.045 11.92 109.045 12.48C109.045 12.96 108.965 13.416 108.805 13.848C108.645 14.264 108.485 14.664 108.325 15.048C108.181 15.416 108.109 15.784 108.109 16.152C108.109 16.424 108.165 16.624 108.277 16.752C108.405 16.864 108.557 16.92 108.733 16.92C109.118 16.92 109.51 16.736 109.91 16.368C110.326 15.984 110.719 15.512 111.087 14.952C111.471 14.376 111.808 13.8 112.096 13.224L112.456 13.536C112.12 14.32 111.744 15.032 111.327 15.672C110.911 16.312 110.447 16.824 109.934 17.208C109.422 17.576 108.845 17.76 108.205 17.76Z" fill="var(--fill-0, #E10174)"/>
<path d="M117.099 19.368C116.187 19.368 115.322 19.208 114.505 18.888C113.689 18.568 113.024 18.08 112.512 17.424C112.016 16.784 111.767 15.976 111.767 15C111.767 14.152 111.943 13.488 112.296 13.008C112.664 12.528 113.12 12.192 113.665 12C114.209 11.808 114.738 11.712 115.25 11.712C114.754 12.224 114.377 12.768 114.121 13.344C113.881 13.92 113.761 14.472 113.761 15C113.761 15.56 113.897 16.088 114.169 16.584C114.441 17.064 114.858 17.456 115.418 17.76C115.979 18.064 116.675 18.216 117.508 18.216C118.228 18.216 118.925 18.088 119.597 17.832C120.286 17.592 120.846 17.224 121.279 16.728C121.727 16.232 121.951 15.616 121.951 14.88C121.951 14.208 121.767 13.632 121.399 13.152C121.031 12.672 120.558 12.248 119.982 11.88C119.405 11.496 118.789 11.136 118.132 10.8C117.492 10.448 116.883 10.072 116.307 9.672C115.73 9.272 115.258 8.816 114.89 8.304C114.521 7.776 114.337 7.144 114.337 6.408C114.337 5.752 114.497 5.056 114.818 4.32C115.154 3.568 115.618 2.864 116.211 2.208C116.819 1.552 117.548 1.024 118.396 0.624001C119.261 0.208 120.222 0 121.279 0C122.32 0 123.048 0.232 123.464 0.696C123.897 1.16 124.113 1.752 124.113 2.472C124.113 3.064 124.009 3.696 123.801 4.368C123.609 5.04 123.36 5.68 123.056 6.288C122.768 6.88 122.488 7.392 122.215 7.824C121.879 7.744 121.631 7.608 121.471 7.416C121.327 7.224 121.255 6.976 121.255 6.672C121.255 6.336 121.319 5.96 121.447 5.544C121.591 5.112 121.751 4.672 121.927 4.224C122.119 3.76 122.288 3.32 122.432 2.904C122.576 2.472 122.648 2.088 122.648 1.752C122.648 1.448 122.56 1.216 122.384 1.056C122.207 0.88 121.855 0.792 121.327 0.792C120.574 0.792 119.878 0.968 119.237 1.32C118.597 1.656 118.036 2.088 117.556 2.616C117.091 3.144 116.723 3.696 116.451 4.272C116.195 4.848 116.067 5.376 116.067 5.856C116.067 6.432 116.243 6.928 116.595 7.344C116.963 7.76 117.428 8.136 117.988 8.472C118.565 8.808 119.173 9.152 119.814 9.504C120.454 9.84 121.055 10.216 121.615 10.632C122.191 11.048 122.656 11.544 123.008 12.12C123.376 12.68 123.561 13.376 123.561 14.208C123.561 15.04 123.376 15.776 123.008 16.416C122.64 17.056 122.135 17.592 121.495 18.024C120.87 18.456 120.174 18.784 119.405 19.008C118.637 19.248 117.868 19.368 117.099 19.368Z" fill="var(--fill-0, #E10174)"/>
<path d="M127.122 18C126.578 18 126.129 17.752 125.777 17.256C125.441 16.76 125.273 16.184 125.273 15.528C125.273 15.08 125.345 14.552 125.489 13.944C125.649 13.336 125.841 12.744 126.065 12.168C126.289 11.576 126.522 11.088 126.762 10.704C127.018 10.32 127.242 10.128 127.434 10.128C127.546 10.128 127.707 10.184 127.915 10.296C128.139 10.408 128.331 10.544 128.491 10.704C128.315 10.96 128.099 11.36 127.843 11.904C127.602 12.448 127.386 13.032 127.194 13.656C127.002 14.264 126.906 14.824 126.906 15.336C126.906 15.416 126.914 15.584 126.93 15.84C126.962 16.08 127.026 16.304 127.122 16.512C127.234 16.72 127.418 16.824 127.675 16.824C127.947 16.824 128.243 16.68 128.563 16.392C128.883 16.088 129.204 15.696 129.524 15.216C129.86 14.736 130.181 14.216 130.485 13.656C130.789 13.096 131.069 12.56 131.325 12.048C131.582 11.536 131.79 11.104 131.95 10.752C132.078 10.768 132.246 10.808 132.454 10.872C132.678 10.92 132.871 10.992 133.031 11.088C133.207 11.184 133.295 11.32 133.295 11.496C133.295 11.544 133.215 11.744 133.055 12.096C132.911 12.448 132.734 12.872 132.526 13.368C132.318 13.864 132.134 14.368 131.974 14.88C131.83 15.392 131.758 15.84 131.758 16.224C131.758 16.464 131.806 16.672 131.902 16.848C131.998 17.024 132.182 17.112 132.454 17.112C132.791 17.112 133.191 16.96 133.655 16.656C134.136 16.352 134.624 15.912 135.12 15.336C135.617 14.744 136.057 14.048 136.441 13.248L136.778 13.512C136.425 14.376 135.969 15.152 135.409 15.84C134.864 16.512 134.272 17.04 133.631 17.424C133.007 17.808 132.398 18 131.806 18C131.357 18 131.013 17.896 130.773 17.688C130.533 17.496 130.365 17.24 130.269 16.92C130.189 16.6 130.148 16.272 130.148 15.936C130.148 15.824 130.148 15.704 130.148 15.576C130.164 15.448 130.18 15.328 130.197 15.216C129.924 15.68 129.62 16.128 129.284 16.56C128.964 16.976 128.619 17.32 128.251 17.592C127.899 17.864 127.522 18 127.122 18Z" fill="var(--fill-0, #E10174)"/>
<path d="M137.932 17.976C137.259 17.976 136.755 17.768 136.419 17.352C136.082 16.952 135.914 16.456 135.914 15.864C135.914 15.496 135.978 15.032 136.106 14.472C136.234 13.912 136.411 13.328 136.635 12.72C136.875 12.096 137.147 11.512 137.451 10.968C137.756 10.424 138.076 9.984 138.412 9.648C138.764 9.296 139.109 9.12 139.445 9.12C139.621 9.12 139.773 9.176 139.901 9.288C140.045 9.4 140.117 9.56 140.117 9.768C140.117 9.976 139.989 10.288 139.733 10.704C139.493 11.12 139.205 11.608 138.868 12.168C138.532 12.712 138.236 13.28 137.98 13.872C137.74 14.464 137.619 15.032 137.619 15.576C137.619 16.104 137.716 16.456 137.908 16.632C138.1 16.808 138.38 16.896 138.748 16.896C139.293 16.896 139.877 16.624 140.502 16.08C141.142 15.536 141.807 14.584 142.495 13.224L142.808 13.56C142.279 14.968 141.575 16.056 140.694 16.824C139.829 17.592 138.908 17.976 137.932 17.976ZM140.79 7.08C140.502 7.08 140.238 7.008 139.997 6.864C139.773 6.72 139.661 6.504 139.661 6.216C139.661 5.832 139.861 5.512 140.262 5.256C140.678 4.984 141.102 4.848 141.535 4.848C141.807 4.848 142.031 4.912 142.207 5.04C142.383 5.168 142.471 5.384 142.471 5.688C142.471 6.024 142.295 6.344 141.943 6.648C141.591 6.936 141.206 7.08 140.79 7.08Z" fill="var(--fill-0, #E10174)"/>
<path d="M144.268 18.384C143.563 18.384 143.003 18.176 142.586 17.76C142.186 17.36 141.986 16.744 141.986 15.912C141.986 15.24 142.114 14.408 142.37 13.416C142.626 12.424 142.946 11.4 143.331 10.344C143.203 10.312 143.059 10.288 142.898 10.272C142.754 10.24 142.618 10.192 142.49 10.128V9.48C142.698 9.512 142.882 9.536 143.043 9.552C143.219 9.568 143.403 9.584 143.595 9.6C143.931 8.752 144.292 7.928 144.676 7.128C145.076 6.328 145.468 5.616 145.853 4.992C146.237 4.368 146.605 3.872 146.958 3.504C147.31 3.136 147.614 2.952 147.87 2.952C148.03 2.952 148.175 3.008 148.303 3.12C148.431 3.232 148.495 3.392 148.495 3.6C148.495 3.904 148.327 4.36 147.99 4.968C147.67 5.56 147.262 6.264 146.765 7.08C146.285 7.88 145.821 8.744 145.372 9.672C145.5 9.672 145.629 9.672 145.757 9.672C145.901 9.672 146.037 9.672 146.165 9.672C146.805 9.672 147.414 9.664 147.99 9.648C148.567 9.616 149.151 9.568 149.744 9.504V10.176C148.863 10.272 148.054 10.344 147.318 10.392C146.597 10.44 145.925 10.464 145.3 10.464C145.252 10.464 145.196 10.464 145.132 10.464C145.084 10.464 145.036 10.464 144.988 10.464C144.636 11.28 144.332 12.112 144.075 12.96C143.835 13.808 143.715 14.632 143.715 15.432C143.715 16.104 143.819 16.584 144.027 16.872C144.235 17.144 144.572 17.28 145.036 17.28C145.837 17.28 146.653 16.912 147.486 16.176C148.319 15.44 149.039 14.448 149.648 13.2L149.984 13.44C149.584 14.368 149.079 15.208 148.471 15.96C147.862 16.712 147.198 17.304 146.477 17.736C145.773 18.168 145.036 18.384 144.268 18.384Z" fill="var(--fill-0, #E10174)"/>
<path d="M154.589 19.368C153.676 19.368 152.812 19.208 151.995 18.888C151.178 18.568 150.514 18.08 150.001 17.424C149.505 16.784 149.257 15.976 149.257 15C149.257 14.152 149.433 13.488 149.785 13.008C150.154 12.528 150.61 12.192 151.154 12C151.699 11.808 152.227 11.712 152.74 11.712C152.243 12.224 151.867 12.768 151.611 13.344C151.371 13.92 151.25 14.472 151.25 15C151.25 15.56 151.387 16.088 151.659 16.584C151.931 17.064 152.347 17.456 152.908 17.76C153.468 18.064 154.165 18.216 154.997 18.216C155.718 18.216 156.414 18.088 157.087 17.832C157.776 17.592 158.336 17.224 158.768 16.728C159.217 16.232 159.441 15.616 159.441 14.88C159.441 14.208 159.257 13.632 158.888 13.152C158.52 12.672 158.048 12.248 157.471 11.88C156.895 11.496 156.278 11.136 155.622 10.8C154.981 10.448 154.373 10.072 153.796 9.672C153.22 9.272 152.748 8.816 152.379 8.304C152.011 7.776 151.827 7.144 151.827 6.408C151.827 5.752 151.987 5.056 152.307 4.32C152.644 3.568 153.108 2.864 153.7 2.208C154.309 1.552 155.037 1.024 155.886 0.624001C156.751 0.208 157.711 0 158.768 0C159.809 0 160.538 0.232 160.954 0.696C161.386 1.16 161.603 1.752 161.603 2.472C161.603 3.064 161.498 3.696 161.29 4.368C161.098 5.04 160.85 5.68 160.546 6.288C160.257 6.88 159.977 7.392 159.705 7.824C159.369 7.744 159.121 7.608 158.96 7.416C158.816 7.224 158.744 6.976 158.744 6.672C158.744 6.336 158.808 5.96 158.936 5.544C159.081 5.112 159.241 4.672 159.417 4.224C159.609 3.76 159.777 3.32 159.921 2.904C160.065 2.472 160.137 2.088 160.137 1.752C160.137 1.448 160.049 1.216 159.873 1.056C159.697 0.88 159.345 0.792 158.816 0.792C158.064 0.792 157.367 0.968 156.727 1.32C156.086 1.656 155.526 2.088 155.045 2.616C154.581 3.144 154.213 3.696 153.941 4.272C153.684 4.848 153.556 5.376 153.556 5.856C153.556 6.432 153.732 6.928 154.085 7.344C154.453 7.76 154.917 8.136 155.478 8.472C156.054 8.808 156.663 9.152 157.303 9.504C157.944 9.84 158.544 10.216 159.105 10.632C159.681 11.048 160.145 11.544 160.498 12.12C160.866 12.68 161.05 13.376 161.05 14.208C161.05 15.04 160.866 15.776 160.498 16.416C160.129 17.056 159.625 17.592 158.984 18.024C158.36 18.456 157.663 18.784 156.895 19.008C156.126 19.248 155.358 19.368 154.589 19.368Z" fill="var(--fill-0, #E10174)"/>
<path d="M163.891 18.192C163.555 18.192 163.307 17.92 163.147 17.376C162.986 16.848 162.906 16.24 162.906 15.552C162.906 14.8 163.034 13.904 163.291 12.864C163.547 11.824 163.883 10.728 164.299 9.576C164.716 8.408 165.18 7.272 165.693 6.168C166.221 5.048 166.757 4.04 167.302 3.144C167.862 2.232 168.391 1.504 168.887 0.96C169.383 0.416 169.816 0.144 170.184 0.144C170.504 0.144 170.744 0.328 170.905 0.696C171.065 1.048 171.145 1.408 171.145 1.776C171.145 2.224 171.041 2.768 170.833 3.408C170.64 4.032 170.368 4.704 170.016 5.424C169.664 6.144 169.247 6.856 168.767 7.56C168.303 8.264 167.798 8.904 167.254 9.48C166.709 10.056 166.141 10.52 165.548 10.872C165.356 11.384 165.196 11.896 165.068 12.408C164.94 12.904 164.844 13.384 164.78 13.848C164.732 14.312 164.708 14.752 164.708 15.168C164.708 15.28 164.708 15.392 164.708 15.504C164.724 15.6 164.74 15.688 164.756 15.768C164.868 15.48 165.012 15.104 165.188 14.64C165.38 14.16 165.604 13.656 165.861 13.128C166.133 12.6 166.445 12.096 166.797 11.616C167.166 11.136 167.582 10.752 168.046 10.464C168.511 10.16 169.023 10.008 169.584 10.008C170.096 10.008 170.496 10.128 170.784 10.368C171.089 10.592 171.297 10.88 171.409 11.232C171.537 11.584 171.601 11.944 171.601 12.312C171.601 12.808 171.513 13.288 171.337 13.752C171.177 14.2 171.009 14.632 170.833 15.048C170.672 15.448 170.592 15.832 170.592 16.2C170.592 16.488 170.656 16.696 170.784 16.824C170.913 16.952 171.073 17.016 171.265 17.016C171.617 17.016 172.025 16.84 172.49 16.488C172.97 16.136 173.435 15.672 173.883 15.096C174.347 14.504 174.748 13.856 175.084 13.152L175.444 13.512C175.092 14.312 174.667 15.04 174.171 15.696C173.675 16.352 173.13 16.88 172.538 17.28C171.961 17.664 171.345 17.856 170.688 17.856C170.096 17.856 169.648 17.696 169.343 17.376C169.039 17.072 168.887 16.688 168.887 16.224C168.887 15.888 168.943 15.52 169.055 15.12C169.183 14.704 169.303 14.288 169.415 13.872C169.527 13.44 169.584 13.048 169.584 12.696C169.584 12.312 169.495 12.04 169.319 11.88C169.159 11.72 168.959 11.64 168.719 11.64C168.319 11.64 167.958 11.8 167.638 12.12C167.318 12.44 167.022 12.848 166.749 13.344C166.493 13.84 166.253 14.368 166.029 14.928C165.805 15.472 165.58 16 165.356 16.512C165.148 17.008 164.924 17.408 164.684 17.712C164.444 18.032 164.179 18.192 163.891 18.192ZM166.005 9.528C166.421 9.16 166.829 8.72 167.23 8.208C167.63 7.68 167.998 7.128 168.335 6.552C168.687 5.976 168.991 5.416 169.247 4.872C169.503 4.328 169.704 3.84 169.848 3.408C170.008 2.976 170.096 2.64 170.112 2.4C170.112 2.368 170.104 2.344 170.088 2.328C170.088 2.312 170.08 2.304 170.064 2.304C169.968 2.304 169.76 2.512 169.439 2.928C169.119 3.328 168.743 3.872 168.311 4.56C167.894 5.248 167.478 6.024 167.062 6.888C166.645 7.752 166.293 8.632 166.005 9.528Z" fill="var(--fill-0, #E10174)"/>
<path d="M176.33 18.048C175.626 18.048 175.137 17.816 174.865 17.352C174.593 16.904 174.457 16.392 174.457 15.816C174.457 15.304 174.537 14.784 174.697 14.256C174.857 13.728 175.073 13.232 175.346 12.768C175.618 12.304 175.922 11.928 176.258 11.64C176.595 11.352 176.939 11.208 177.291 11.208C177.387 11.208 177.499 11.232 177.627 11.28C177.772 11.312 177.876 11.36 177.94 11.424C177.764 11.616 177.571 11.888 177.363 12.24C177.171 12.592 176.987 12.976 176.811 13.392C176.651 13.792 176.515 14.2 176.402 14.616C176.306 15.016 176.258 15.384 176.258 15.72C176.258 16.088 176.322 16.376 176.451 16.584C176.579 16.792 176.787 16.896 177.075 16.896C177.395 16.896 177.772 16.728 178.204 16.392C178.652 16.04 179.077 15.616 179.477 15.12C178.981 14.688 178.612 14.192 178.372 13.632C178.148 13.056 178.036 12.408 178.036 11.688C178.036 11.288 178.124 10.864 178.3 10.416C178.476 9.968 178.748 9.592 179.117 9.288C179.485 8.984 179.965 8.832 180.558 8.832C181.23 8.832 181.695 9.024 181.951 9.408C182.223 9.776 182.359 10.224 182.359 10.752C182.359 11.344 182.199 12.016 181.879 12.768C181.575 13.504 181.206 14.208 180.774 14.88C180.998 15.008 181.246 15.072 181.518 15.072C181.759 15.072 182.047 15.016 182.383 14.904C182.719 14.792 183.04 14.608 183.344 14.352C183.664 14.08 183.92 13.728 184.112 13.296L184.497 13.584C184.161 14.368 183.696 14.944 183.104 15.312C182.527 15.664 181.967 15.84 181.422 15.84C181.214 15.84 181.006 15.824 180.798 15.792C180.59 15.744 180.398 15.68 180.221 15.6C179.677 16.272 179.061 16.848 178.372 17.328C177.699 17.808 177.019 18.048 176.33 18.048ZM180.029 14.4C180.43 13.84 180.758 13.24 181.014 12.6C181.286 11.944 181.422 11.344 181.422 10.8C181.422 10.4 181.358 10.112 181.23 9.936C181.118 9.744 180.958 9.648 180.75 9.648C180.43 9.648 180.109 9.872 179.789 10.32C179.469 10.752 179.309 11.304 179.309 11.976C179.309 12.36 179.365 12.792 179.477 13.272C179.605 13.736 179.789 14.112 180.029 14.4Z" fill="var(--fill-0, #E10174)"/>
<path d="M182.425 24C182.297 24 182.169 23.952 182.041 23.856C181.896 23.76 181.776 23.656 181.68 23.544C181.584 23.432 181.536 23.352 181.536 23.304C181.872 22.264 182.169 21.352 182.425 20.568C182.681 19.8 182.913 19.056 183.121 18.336C183.314 17.616 183.498 16.84 183.674 16.008C183.85 15.16 184.026 14.168 184.202 13.032C184.378 11.88 184.563 10.48 184.755 8.832C184.787 8.656 184.827 8.528 184.875 8.448C184.923 8.368 185.067 8.328 185.307 8.328C185.771 8.328 186.108 8.456 186.316 8.712C186.524 8.968 186.628 9.248 186.628 9.552C186.628 9.728 186.588 10.048 186.508 10.512C186.444 10.96 186.348 11.504 186.22 12.144C186.508 11.648 186.852 11.176 187.253 10.728C187.653 10.264 188.101 9.88 188.598 9.576C189.094 9.272 189.63 9.12 190.207 9.12C190.976 9.12 191.6 9.384 192.08 9.912C192.577 10.424 192.825 11.104 192.825 11.952C192.825 12.576 192.681 13.24 192.393 13.944C192.12 14.632 191.728 15.288 191.216 15.912C190.719 16.52 190.111 17.016 189.39 17.4C188.686 17.8 187.909 18 187.06 18C186.58 18 186.196 17.936 185.908 17.808C185.619 17.696 185.475 17.576 185.475 17.448C185.475 17.352 185.531 17.296 185.643 17.28C185.771 17.248 185.908 17.232 186.052 17.232C186.772 17.232 187.429 17.08 188.021 16.776C188.63 16.456 189.158 16.048 189.606 15.552C190.071 15.056 190.423 14.52 190.663 13.944C190.919 13.368 191.048 12.792 191.048 12.216C191.048 11.736 190.935 11.32 190.711 10.968C190.503 10.6 190.167 10.416 189.703 10.416C189.286 10.416 188.87 10.552 188.454 10.824C188.053 11.08 187.677 11.408 187.325 11.808C186.972 12.192 186.66 12.6 186.388 13.032C186.116 13.464 185.908 13.848 185.763 14.184C185.459 15.288 185.171 16.368 184.899 17.424C184.643 18.496 184.394 19.48 184.154 20.376C183.93 21.288 183.706 22.048 183.482 22.656C183.242 23.264 183.009 23.664 182.785 23.856C182.673 23.952 182.553 24 182.425 24Z" fill="var(--fill-0, #E10174)"/>
<path d="M198.088 8.16C198.088 10.5366 196.426 11.94 194.071 11.94C196.426 11.94 198.088 13.4634 198.088 15.84C198.088 13.4634 199.75 11.94 202.105 11.94C199.75 11.94 198.088 10.5366 198.088 8.16Z" fill="var(--fill-0, #E10174)"/>
<path d="M3.84299 8.16C3.84299 10.4335 2.25339 11.7761 0 11.7761C2.25339 11.7761 3.84299 13.2335 3.84299 15.507C3.84299 13.2335 5.43259 11.7761 7.68598 11.7761C5.43259 11.7761 3.84299 10.4335 3.84299 8.16Z" fill="var(--fill-0, #E10174)"/>
</g>
</svg>
