<svg width="270" height="32" viewBox="0 0 270 32" fill="none" xmlns="http://www.w3.org/2000/svg">
<path d="M19.52 25.824C17.9413 25.824 16.6507 25.44 15.648 24.672C14.6667 23.904 13.9413 22.9227 13.472 21.728C13.024 20.512 12.8 19.2533 12.8 17.952C12.8 16.2667 13.056 14.5813 13.568 12.896C14.08 11.1893 14.784 9.568 15.68 8.032C16.576 6.47467 17.5893 5.09867 18.72 3.904C19.872 2.70933 21.088 1.77067 22.368 1.088C23.6693 0.384 24.96 0.0319996 26.24 0.0319996C27.1573 0.0319996 27.9147 0.245333 28.512 0.671999C29.1307 1.09867 29.44 1.83467 29.44 2.88C29.44 3.52 29.3227 4.23467 29.088 5.024C28.8747 5.81333 28.576 6.57067 28.192 7.296C27.8293 8.02133 27.4133 8.61867 26.944 9.088C26.496 9.55733 26.0373 9.792 25.568 9.792C25.376 9.792 25.1733 9.728 24.96 9.6C24.7467 9.45067 24.5547 9.216 24.384 8.896C24.704 8.53333 25.056 8.08533 25.44 7.552C25.8453 7.01867 26.2293 6.45333 26.592 5.856C26.9547 5.25867 27.2533 4.68267 27.488 4.128C27.7227 3.552 27.84 3.04 27.84 2.592C27.84 2.208 27.7227 1.89867 27.488 1.664C27.2747 1.408 26.8907 1.28 26.336 1.28C25.4187 1.28 24.4587 1.64267 23.456 2.368C22.4747 3.09333 21.5253 4.064 20.608 5.28C19.6907 6.47467 18.8587 7.81867 18.112 9.312C17.3653 10.784 16.7787 12.3093 16.352 13.888C15.9253 15.4453 15.712 16.928 15.712 18.336C15.712 19.36 15.8613 20.3413 16.16 21.28C16.4587 22.2187 16.9493 22.976 17.632 23.552C18.3147 24.1493 19.2 24.448 20.288 24.448C21.44 24.448 22.5813 24.128 23.712 23.488C24.8427 22.848 25.8773 22.0053 26.816 20.96C27.776 19.9147 28.544 18.784 29.12 17.568L29.824 18.048C29.0773 19.456 28.192 20.7573 27.168 21.952C26.144 23.1253 24.9813 24.064 23.68 24.768C22.4 25.472 21.0133 25.824 19.52 25.824Z" fill="#E10174"/>
<path d="M30.7919 24.064C29.8532 24.064 29.2025 23.7547 28.8399 23.136C28.4772 22.5387 28.2959 21.856 28.2959 21.088C28.2959 20.4053 28.4025 19.712 28.6159 19.008C28.8292 18.304 29.1172 17.6427 29.4799 17.024C29.8425 16.4053 30.2479 15.904 30.6959 15.52C31.1439 15.136 31.6025 14.944 32.0719 14.944C32.1999 14.944 32.3492 14.976 32.5199 15.04C32.7119 15.0827 32.8505 15.1467 32.9359 15.232C32.7012 15.488 32.4452 15.8507 32.1679 16.32C31.9119 16.7893 31.6665 17.3013 31.4319 17.856C31.2185 18.3893 31.0372 18.9333 30.8879 19.488C30.7599 20.0213 30.6959 20.512 30.6959 20.96C30.6959 21.4507 30.7812 21.8347 30.9519 22.112C31.1225 22.3893 31.3999 22.528 31.7839 22.528C32.2105 22.528 32.7119 22.304 33.2879 21.856C33.8852 21.3867 34.4505 20.8213 34.9839 20.16C34.3225 19.584 33.8319 18.9227 33.5119 18.176C33.2132 17.408 33.0639 16.544 33.0639 15.584C33.0639 15.0507 33.1812 14.4853 33.4159 13.888C33.6505 13.2907 34.0132 12.7893 34.5039 12.384C34.9945 11.9787 35.6345 11.776 36.4239 11.776C37.3199 11.776 37.9385 12.032 38.2799 12.544C38.6425 13.0347 38.8239 13.632 38.8239 14.336C38.8239 15.1253 38.6105 16.0213 38.1839 17.024C37.7785 18.0053 37.2879 18.944 36.7119 19.84C37.0105 20.0107 37.3412 20.096 37.7039 20.096C38.0239 20.096 38.4079 20.0213 38.8559 19.872C39.3039 19.7227 39.7305 19.4773 40.1359 19.136C40.5625 18.7733 40.9039 18.304 41.1599 17.728L41.6719 18.112C41.2239 19.1573 40.6052 19.9253 39.8159 20.416C39.0479 20.8853 38.3012 21.12 37.5759 21.12C37.2985 21.12 37.0212 21.0987 36.7439 21.056C36.4665 20.992 36.2105 20.9067 35.9759 20.8C35.2505 21.696 34.4292 22.464 33.5119 23.104C32.6159 23.744 31.7092 24.064 30.7919 24.064ZM35.7199 19.2C36.2532 18.4533 36.6905 17.6533 37.0319 16.8C37.3945 15.9253 37.5759 15.1253 37.5759 14.4C37.5759 13.8667 37.4905 13.4827 37.3199 13.248C37.1705 12.992 36.9572 12.864 36.6799 12.864C36.2532 12.864 35.8265 13.1627 35.3999 13.76C34.9732 14.336 34.7599 15.072 34.7599 15.968C34.7599 16.48 34.8345 17.056 34.9839 17.696C35.1545 18.3147 35.3999 18.816 35.7199 19.2Z" fill="#E10174"/>
<path d="M57.3115 24.032C56.5008 24.032 55.9035 23.7867 55.5195 23.296C55.1355 22.8267 54.9435 22.2613 54.9435 21.6C54.9435 21.088 55.0181 20.5867 55.1675 20.096C55.3168 19.584 55.4661 19.0827 55.6155 18.592C55.7861 18.1013 55.8715 17.6533 55.8715 17.248C55.8715 16.864 55.7861 16.5973 55.6155 16.448C55.4661 16.2987 55.2848 16.224 55.0715 16.224C54.5595 16.224 53.9835 16.6187 53.3435 17.408C52.7035 18.176 51.8928 19.2853 50.9115 20.736C50.5701 21.248 50.2608 21.7813 49.9835 22.336C49.7061 22.8907 49.4501 23.3707 49.2155 23.776C49.0448 23.776 48.8101 23.744 48.5115 23.68C48.2128 23.616 47.9461 23.5307 47.7115 23.424C47.4981 23.3173 47.3915 23.1787 47.3915 23.008C47.3915 22.816 47.4981 22.4427 47.7115 21.888C47.9248 21.3333 48.1701 20.6827 48.4475 19.936C48.7248 19.1893 48.9595 18.4533 49.1515 17.728C49.3648 16.9813 49.4715 16.352 49.4715 15.84C49.4715 15.52 49.4181 15.2747 49.3115 15.104C49.2048 14.912 49.0235 14.816 48.7675 14.816C48.3195 14.816 47.7755 15.0933 47.1355 15.648C46.4955 16.1813 45.8235 16.8853 45.1195 17.76C44.4155 18.6347 43.7541 19.616 43.1355 20.704C42.5381 21.7707 42.0475 22.8373 41.6635 23.904C41.4288 23.904 41.1515 23.8613 40.8315 23.776C40.5115 23.6907 40.2341 23.584 39.9995 23.456C39.7648 23.328 39.6475 23.2107 39.6475 23.104C39.6475 23.04 39.7328 22.7093 39.9035 22.112C40.0741 21.5147 40.2875 20.7787 40.5435 19.904C40.7781 19.0293 41.0021 18.1333 41.2155 17.216C41.4501 16.2987 41.6315 15.488 41.7595 14.784C41.8448 14.592 42.0688 14.4107 42.4315 14.24C42.7941 14.0693 43.1248 13.984 43.4235 13.984C43.7221 13.984 43.9568 14.0693 44.1275 14.24C44.3195 14.4107 44.4155 14.6453 44.4155 14.944C44.4155 15.1787 44.3621 15.552 44.2555 16.064C44.1488 16.5547 44.0101 17.1093 43.8395 17.728C44.2875 17.088 44.7675 16.4587 45.2795 15.84C45.7915 15.2 46.3248 14.624 46.8795 14.112C47.4555 13.6 48.0208 13.1947 48.5755 12.896C49.1515 12.576 49.7168 12.416 50.2715 12.416C51.0181 12.416 51.5195 12.6827 51.7755 13.216C52.0528 13.7493 52.1915 14.3467 52.1915 15.008C52.1915 15.3707 52.1488 15.744 52.0635 16.128C51.9995 16.512 51.9141 16.8747 51.8075 17.216C51.7221 17.5573 51.6155 17.8987 51.4875 18.24C51.8928 17.5787 52.3515 16.9493 52.8635 16.352C53.3755 15.7547 53.9195 15.2853 54.4955 14.944C55.0715 14.5813 55.6901 14.4 56.3515 14.4C57.1408 14.4 57.6848 14.6347 57.9835 15.104C58.2821 15.5733 58.4315 16.096 58.4315 16.672C58.4315 17.2267 58.3355 17.824 58.1435 18.464C57.9728 19.0827 57.7915 19.68 57.5995 20.256C57.4075 20.8107 57.3115 21.2907 57.3115 21.696C57.3115 21.9307 57.3648 22.144 57.4715 22.336C57.5995 22.528 57.8341 22.624 58.1755 22.624C58.7515 22.624 59.3061 22.3573 59.8395 21.824C60.3728 21.2907 60.8635 20.64 61.3115 19.872C61.7595 19.0827 62.1435 18.336 62.4635 17.632L62.9435 18.208C62.6021 19.104 62.1648 20 61.6315 20.896C61.0981 21.792 60.4688 22.5387 59.7435 23.136C59.0181 23.7333 58.2075 24.032 57.3115 24.032Z" fill="#E10174"/>
<path d="M60.1561 32C59.9854 32 59.8148 31.936 59.6441 31.808C59.4521 31.68 59.2921 31.5413 59.1641 31.392C59.0361 31.2427 58.9721 31.136 58.9721 31.072C59.4201 29.6853 59.8148 28.4693 60.1561 27.424C60.4974 26.4 60.8068 25.408 61.0841 24.448C61.3401 23.488 61.5854 22.4533 61.8201 21.344C62.0548 20.2133 62.2894 18.8907 62.5241 17.376C62.7588 15.84 63.0041 13.9733 63.2601 11.776C63.3028 11.5413 63.3561 11.3707 63.4201 11.264C63.4841 11.1573 63.6761 11.104 63.9961 11.104C64.6148 11.104 65.0628 11.2747 65.3401 11.616C65.6174 11.9573 65.7561 12.3307 65.7561 12.736C65.7561 12.9707 65.7028 13.3973 65.5961 14.016C65.5108 14.6133 65.3828 15.3387 65.2121 16.192C65.5961 15.5307 66.0548 14.9013 66.5881 14.304C67.1214 13.6853 67.7188 13.1733 68.3801 12.768C69.0414 12.3627 69.7561 12.16 70.5241 12.16C71.5481 12.16 72.3801 12.512 73.0201 13.216C73.6814 13.8987 74.0121 14.8053 74.0121 15.936C74.0121 16.768 73.8201 17.6533 73.4361 18.592C73.0734 19.5093 72.5508 20.384 71.8681 21.216C71.2068 22.0267 70.3961 22.688 69.4361 23.2C68.4974 23.7333 67.4628 24 66.3321 24C65.6921 24 65.1801 23.9147 64.7961 23.744C64.4121 23.5947 64.2201 23.4347 64.2201 23.264C64.2201 23.136 64.2948 23.0613 64.4441 23.04C64.6148 22.9973 64.7961 22.976 64.9881 22.976C65.9481 22.976 66.8228 22.7733 67.6121 22.368C68.4228 21.9413 69.1268 21.3973 69.7241 20.736C70.3428 20.0747 70.8121 19.36 71.1321 18.592C71.4734 17.824 71.6441 17.056 71.6441 16.288C71.6441 15.648 71.4948 15.0933 71.1961 14.624C70.9188 14.1333 70.4708 13.888 69.8521 13.888C69.2974 13.888 68.7428 14.0693 68.1881 14.432C67.6548 14.7733 67.1534 15.2107 66.6841 15.744C66.2148 16.256 65.7988 16.8 65.4361 17.376C65.0734 17.952 64.7961 18.464 64.6041 18.912C64.1988 20.384 63.8148 21.824 63.4521 23.232C63.1108 24.6613 62.7801 25.9733 62.4601 27.168C62.1614 28.384 61.8628 29.3973 61.5641 30.208C61.2441 31.0187 60.9348 31.552 60.6361 31.808C60.4868 31.936 60.3268 32 60.1561 32Z" fill="#E10174"/>
<path d="M78.904 24.448C77.56 24.448 76.5359 24.0853 75.832 23.36C75.128 22.6347 74.7759 21.728 74.7759 20.64C74.7759 19.68 75.0106 18.6773 75.4799 17.632C75.9706 16.5653 76.6213 15.5733 77.432 14.656C78.2426 13.7173 79.1279 12.96 80.0879 12.384C81.0693 11.7867 82.0399 11.488 82.9999 11.488C83.5333 11.488 84.0346 11.6267 84.504 11.904C84.9946 12.1813 85.24 12.736 85.24 13.568C85.24 14.3787 84.9946 15.1467 84.504 15.872C84.0346 16.576 83.4053 17.2053 82.6159 17.76C81.8479 18.3147 80.9839 18.7733 80.0239 19.136C79.0853 19.4773 78.1466 19.6907 77.2079 19.776C77.1866 19.904 77.1653 20.032 77.144 20.16C77.1226 20.288 77.112 20.4587 77.112 20.672C77.112 20.8427 77.1333 21.0773 77.1759 21.376C77.24 21.6533 77.3466 21.9413 77.4959 22.24C77.6666 22.5173 77.9226 22.752 78.2639 22.944C78.6053 23.136 79.0533 23.232 79.608 23.232C80.504 23.232 81.4 22.976 82.296 22.464C83.2133 21.952 84.0666 21.28 84.856 20.448C85.6453 19.5947 86.3066 18.656 86.84 17.632L87.384 18.08C86.808 19.36 86.072 20.48 85.176 21.44C84.28 22.3787 83.2879 23.1147 82.2 23.648C81.1333 24.1813 80.0346 24.448 78.904 24.448ZM77.4959 18.784C78.0506 18.6773 78.6799 18.464 79.3839 18.144C80.088 17.8027 80.76 17.3867 81.4 16.896C82.04 16.384 82.5626 15.8293 82.9679 15.232C83.3946 14.6347 83.6079 14.0267 83.6079 13.408C83.6079 13.1733 83.5653 13.0027 83.4799 12.896C83.3946 12.7893 83.2453 12.736 83.032 12.736C82.52 12.736 81.9866 12.928 81.432 13.312C80.8986 13.6747 80.3653 14.1547 79.832 14.752C79.32 15.328 78.8613 15.9787 78.4559 16.704C78.0506 17.408 77.7306 18.1013 77.4959 18.784Z" fill="#E10174"/>
<path d="M89.2243 24.512C88.2856 24.512 87.539 24.2347 86.9843 23.68C86.451 23.1467 86.1843 22.3253 86.1843 21.216C86.1843 20.32 86.355 19.2107 86.6963 17.888C87.0376 16.5653 87.4643 15.2 87.9763 13.792C87.8056 13.7493 87.6136 13.7173 87.4003 13.696C87.2083 13.6533 87.027 13.5893 86.8563 13.504V12.64C87.1337 12.6827 87.379 12.7147 87.5923 12.736C87.827 12.7573 88.0723 12.7787 88.3283 12.8C88.7763 11.6693 89.2563 10.5707 89.7683 9.504C90.3017 8.43733 90.8243 7.488 91.3363 6.656C91.8483 5.824 92.339 5.16267 92.8083 4.672C93.2776 4.18133 93.683 3.936 94.0243 3.936C94.2376 3.936 94.4296 4.01067 94.6003 4.16C94.771 4.30933 94.8563 4.52267 94.8563 4.8C94.8563 5.20533 94.6323 5.81333 94.1843 6.624C93.7576 7.41333 93.2136 8.352 92.5523 9.44C91.9123 10.5067 91.2936 11.6587 90.6963 12.896C90.867 12.896 91.0377 12.896 91.2083 12.896C91.4003 12.896 91.5816 12.896 91.7523 12.896C92.6056 12.896 93.4163 12.8853 94.1843 12.864C94.9523 12.8213 95.731 12.7573 96.5203 12.672V13.568C95.347 13.696 94.2696 13.792 93.2883 13.856C92.3283 13.92 91.4323 13.952 90.6003 13.952C90.5363 13.952 90.4616 13.952 90.3763 13.952C90.3123 13.952 90.2483 13.952 90.1843 13.952C89.715 15.04 89.3097 16.1493 88.9683 17.28C88.6483 18.4107 88.4883 19.5093 88.4883 20.576C88.4883 21.472 88.627 22.112 88.9043 22.496C89.1816 22.8587 89.6296 23.04 90.2483 23.04C91.315 23.04 92.403 22.5493 93.5123 21.568C94.6216 20.5867 95.5816 19.264 96.3923 17.6L96.8403 17.92C96.307 19.1573 95.635 20.2773 94.8243 21.28C94.0136 22.2827 93.1283 23.072 92.1683 23.648C91.2296 24.224 90.2483 24.512 89.2243 24.512Z" fill="#E10174"/>
<path d="M98.3037 23.968C97.4077 23.968 96.7357 23.6907 96.2877 23.136C95.8397 22.6027 95.6157 21.9413 95.6157 21.152C95.6157 20.6613 95.701 20.0427 95.8717 19.296C96.0423 18.5493 96.277 17.7707 96.5757 16.96C96.8957 16.128 97.2583 15.3493 97.6637 14.624C98.069 13.8987 98.4957 13.312 98.9437 12.864C99.413 12.3947 99.8717 12.16 100.32 12.16C100.554 12.16 100.757 12.2347 100.928 12.384C101.12 12.5333 101.216 12.7467 101.216 13.024C101.216 13.3013 101.045 13.7173 100.704 14.272C100.384 14.8267 99.9997 15.4773 99.5517 16.224C99.1037 16.9493 98.709 17.7067 98.3677 18.496C98.0477 19.2853 97.8877 20.0427 97.8877 20.768C97.8877 21.472 98.0157 21.9413 98.2717 22.176C98.5277 22.4107 98.901 22.528 99.3917 22.528C100.117 22.528 100.896 22.1653 101.728 21.44C102.581 20.7147 103.466 19.4453 104.384 17.632L104.8 18.08C104.096 19.9573 103.157 21.408 101.984 22.432C100.832 23.456 99.605 23.968 98.3037 23.968ZM102.112 9.44C101.728 9.44 101.376 9.344 101.056 9.152C100.757 8.96 100.608 8.672 100.608 8.288C100.608 7.776 100.874 7.34933 101.408 7.008C101.962 6.64533 102.528 6.464 103.104 6.464C103.466 6.464 103.765 6.54933 104 6.72C104.234 6.89067 104.352 7.17867 104.352 7.584C104.352 8.032 104.117 8.45867 103.648 8.864C103.178 9.248 102.666 9.44 102.112 9.44Z" fill="#E10174"/>
<path d="M106.745 24.512C105.806 24.512 105.059 24.2347 104.505 23.68C103.971 23.1467 103.705 22.3253 103.705 21.216C103.705 20.32 103.875 19.2107 104.217 17.888C104.558 16.5653 104.985 15.2 105.497 13.792C105.326 13.7493 105.134 13.7173 104.921 13.696C104.729 13.6533 104.547 13.5893 104.377 13.504V12.64C104.654 12.6827 104.899 12.7147 105.113 12.736C105.347 12.7573 105.593 12.7787 105.849 12.8C106.297 11.6693 106.777 10.5707 107.289 9.504C107.822 8.43733 108.345 7.488 108.857 6.656C109.369 5.824 109.859 5.16267 110.329 4.672C110.798 4.18133 111.203 3.936 111.545 3.936C111.758 3.936 111.95 4.01067 112.121 4.16C112.291 4.30933 112.377 4.52267 112.377 4.8C112.377 5.20533 112.153 5.81333 111.705 6.624C111.278 7.41333 110.734 8.352 110.073 9.44C109.433 10.5067 108.814 11.6587 108.217 12.896C108.387 12.896 108.558 12.896 108.729 12.896C108.921 12.896 109.102 12.896 109.273 12.896C110.126 12.896 110.937 12.8853 111.705 12.864C112.473 12.8213 113.251 12.7573 114.041 12.672V13.568C112.867 13.696 111.79 13.792 110.809 13.856C109.849 13.92 108.953 13.952 108.121 13.952C108.057 13.952 107.982 13.952 107.897 13.952C107.833 13.952 107.769 13.952 107.705 13.952C107.235 15.04 106.83 16.1493 106.489 17.28C106.169 18.4107 106.009 19.5093 106.009 20.576C106.009 21.472 106.147 22.112 106.425 22.496C106.702 22.8587 107.15 23.04 107.769 23.04C108.835 23.04 109.923 22.5493 111.033 21.568C112.142 20.5867 113.102 19.264 113.913 17.6L114.361 17.92C113.827 19.1573 113.155 20.2773 112.345 21.28C111.534 22.2827 110.649 23.072 109.689 23.648C108.75 24.224 107.769 24.512 106.745 24.512Z" fill="#E10174"/>
<path d="M115.824 23.968C114.928 23.968 114.256 23.6907 113.808 23.136C113.36 22.6027 113.136 21.9413 113.136 21.152C113.136 20.6613 113.221 20.0427 113.392 19.296C113.563 18.5493 113.797 17.7707 114.096 16.96C114.416 16.128 114.779 15.3493 115.184 14.624C115.589 13.8987 116.016 13.312 116.464 12.864C116.933 12.3947 117.392 12.16 117.84 12.16C118.075 12.16 118.277 12.2347 118.448 12.384C118.64 12.5333 118.736 12.7467 118.736 13.024C118.736 13.3013 118.565 13.7173 118.224 14.272C117.904 14.8267 117.52 15.4773 117.072 16.224C116.624 16.9493 116.229 17.7067 115.888 18.496C115.568 19.2853 115.408 20.0427 115.408 20.768C115.408 21.472 115.536 21.9413 115.792 22.176C116.048 22.4107 116.421 22.528 116.912 22.528C117.637 22.528 118.416 22.1653 119.248 21.44C120.101 20.7147 120.987 19.4453 121.904 17.632L122.32 18.08C121.616 19.9573 120.677 21.408 119.504 22.432C118.352 23.456 117.125 23.968 115.824 23.968ZM119.632 9.44C119.248 9.44 118.896 9.344 118.576 9.152C118.277 8.96 118.128 8.672 118.128 8.288C118.128 7.776 118.395 7.34933 118.928 7.008C119.483 6.64533 120.048 6.464 120.624 6.464C120.987 6.464 121.285 6.54933 121.52 6.72C121.755 6.89067 121.872 7.17867 121.872 7.584C121.872 8.032 121.637 8.45867 121.168 8.864C120.699 9.248 120.187 9.44 119.632 9.44Z" fill="#E10174"/>
<path d="M123.561 24.064C122.623 24.064 121.972 23.7547 121.609 23.136C121.247 22.5387 121.065 21.856 121.065 21.088C121.065 20.4053 121.172 19.712 121.385 19.008C121.599 18.304 121.887 17.6427 122.249 17.024C122.612 16.4053 123.017 15.904 123.465 15.52C123.913 15.136 124.372 14.944 124.841 14.944C124.969 14.944 125.119 14.976 125.289 15.04C125.481 15.0827 125.62 15.1467 125.705 15.232C125.471 15.488 125.215 15.8507 124.937 16.32C124.681 16.7893 124.436 17.3013 124.201 17.856C123.988 18.3893 123.807 18.9333 123.657 19.488C123.529 20.0213 123.465 20.512 123.465 20.96C123.465 21.4507 123.551 21.8347 123.721 22.112C123.892 22.3893 124.169 22.528 124.553 22.528C124.98 22.528 125.481 22.304 126.057 21.856C126.655 21.3867 127.22 20.8213 127.753 20.16C127.092 19.584 126.601 18.9227 126.281 18.176C125.983 17.408 125.833 16.544 125.833 15.584C125.833 15.0507 125.951 14.4853 126.185 13.888C126.42 13.2907 126.783 12.7893 127.273 12.384C127.764 11.9787 128.404 11.776 129.193 11.776C130.089 11.776 130.708 12.032 131.049 12.544C131.412 13.0347 131.593 13.632 131.593 14.336C131.593 15.1253 131.38 16.0213 130.953 17.024C130.548 18.0053 130.057 18.944 129.481 19.84C129.78 20.0107 130.111 20.096 130.473 20.096C130.793 20.096 131.177 20.0213 131.625 19.872C132.073 19.7227 132.5 19.4773 132.905 19.136C133.332 18.7733 133.673 18.304 133.929 17.728L134.441 18.112C133.993 19.1573 133.375 19.9253 132.585 20.416C131.817 20.8853 131.071 21.12 130.345 21.12C130.068 21.12 129.791 21.0987 129.513 21.056C129.236 20.992 128.98 20.9067 128.745 20.8C128.02 21.696 127.199 22.464 126.281 23.104C125.385 23.744 124.479 24.064 123.561 24.064ZM128.489 19.2C129.023 18.4533 129.46 17.6533 129.801 16.8C130.164 15.9253 130.345 15.1253 130.345 14.4C130.345 13.8667 130.26 13.4827 130.089 13.248C129.94 12.992 129.727 12.864 129.449 12.864C129.023 12.864 128.596 13.1627 128.169 13.76C127.743 14.336 127.529 15.072 127.529 15.968C127.529 16.48 127.604 17.056 127.753 17.696C127.924 18.3147 128.169 18.816 128.489 19.2Z" fill="#E10174"/>
<path d="M144.161 23.68C143.372 23.68 142.764 23.4773 142.337 23.072C141.932 22.6667 141.729 22.1547 141.729 21.536C141.729 21.088 141.804 20.6293 141.953 20.16C142.102 19.6693 142.252 19.1787 142.401 18.688C142.55 18.176 142.625 17.6853 142.625 17.216C142.625 16.704 142.508 16.352 142.273 16.16C142.038 15.968 141.761 15.872 141.441 15.872C140.801 15.872 140.14 16.1387 139.457 16.672C138.796 17.2053 138.145 17.8773 137.505 18.688C136.865 19.4773 136.268 20.3093 135.713 21.184C135.158 22.0587 134.678 22.8373 134.273 23.52C133.889 23.52 133.526 23.456 133.185 23.328C132.844 23.2 132.556 22.976 132.321 22.656C132.342 22.5493 132.47 22.2293 132.705 21.696C132.918 21.1413 133.164 20.48 133.441 19.712C133.718 18.9227 133.964 18.112 134.177 17.28C134.412 16.448 134.529 15.68 134.529 14.976C134.678 14.8267 134.902 14.6667 135.201 14.496C135.5 14.3253 135.809 14.24 136.129 14.24C136.812 14.24 137.153 14.5493 137.153 15.168C137.153 15.4453 137.089 15.8933 136.961 16.512C136.833 17.1093 136.662 17.7707 136.449 18.496C137.004 17.7067 137.622 16.9493 138.305 16.224C138.988 15.4773 139.702 14.8693 140.449 14.4C141.196 13.9307 141.953 13.696 142.721 13.696C143.596 13.696 144.236 14.0053 144.641 14.624C145.068 15.2213 145.281 15.8933 145.281 16.64C145.281 17.28 145.174 17.888 144.961 18.464C144.748 19.0187 144.534 19.552 144.321 20.064C144.129 20.5547 144.033 21.0453 144.033 21.536C144.033 21.8987 144.108 22.1653 144.257 22.336C144.428 22.4853 144.63 22.56 144.865 22.56C145.377 22.56 145.9 22.3147 146.433 21.824C146.988 21.312 147.51 20.6827 148.001 19.936C148.513 19.168 148.961 18.4 149.345 17.632L149.825 18.048C149.377 19.0933 148.876 20.0427 148.321 20.896C147.766 21.7493 147.148 22.432 146.465 22.944C145.782 23.4347 145.014 23.68 144.161 23.68Z" fill="#E10174"/>
<path d="M156.011 25.824C154.795 25.824 153.643 25.6107 152.555 25.184C151.467 24.7573 150.582 24.1067 149.899 23.232C149.238 22.3787 148.907 21.3013 148.907 20C148.907 18.8693 149.142 17.984 149.611 17.344C150.102 16.704 150.71 16.256 151.435 16C152.161 15.744 152.865 15.616 153.547 15.616C152.886 16.2987 152.385 17.024 152.043 17.792C151.723 18.56 151.563 19.296 151.563 20C151.563 20.7467 151.745 21.4507 152.107 22.112C152.47 22.752 153.025 23.2747 153.771 23.68C154.518 24.0853 155.446 24.288 156.555 24.288C157.515 24.288 158.443 24.1173 159.339 23.776C160.257 23.456 161.003 22.9653 161.579 22.304C162.177 21.6427 162.475 20.8213 162.475 19.84C162.475 18.944 162.23 18.176 161.739 17.536C161.249 16.896 160.619 16.3307 159.851 15.84C159.083 15.328 158.262 14.848 157.387 14.4C156.534 13.9307 155.723 13.4293 154.955 12.896C154.187 12.3627 153.558 11.7547 153.067 11.072C152.577 10.368 152.331 9.52533 152.331 8.544C152.331 7.66933 152.545 6.74133 152.971 5.76C153.419 4.75733 154.038 3.81867 154.827 2.944C155.638 2.06933 156.609 1.36533 157.739 0.832001C158.891 0.277334 160.171 0 161.579 0C162.966 0 163.937 0.309333 164.491 0.927999C165.067 1.54667 165.355 2.336 165.355 3.296C165.355 4.08533 165.217 4.928 164.939 5.824C164.683 6.72 164.353 7.57333 163.947 8.384C163.563 9.17333 163.19 9.856 162.827 10.432C162.379 10.3253 162.049 10.144 161.835 9.888C161.643 9.632 161.547 9.30133 161.547 8.896C161.547 8.448 161.633 7.94667 161.803 7.392C161.995 6.816 162.209 6.22933 162.443 5.632C162.699 5.01333 162.923 4.42667 163.115 3.872C163.307 3.296 163.403 2.784 163.403 2.336C163.403 1.93067 163.286 1.62133 163.051 1.408C162.817 1.17333 162.347 1.056 161.643 1.056C160.641 1.056 159.713 1.29067 158.859 1.76C158.006 2.208 157.259 2.784 156.619 3.488C156.001 4.192 155.51 4.928 155.147 5.696C154.806 6.464 154.635 7.168 154.635 7.808C154.635 8.576 154.87 9.23733 155.339 9.792C155.83 10.3467 156.449 10.848 157.195 11.296C157.963 11.744 158.774 12.2027 159.627 12.672C160.481 13.12 161.281 13.6213 162.027 14.176C162.795 14.7307 163.414 15.392 163.883 16.16C164.374 16.9067 164.619 17.8347 164.619 18.944C164.619 20.0533 164.374 21.0347 163.883 21.888C163.393 22.7413 162.721 23.456 161.867 24.032C161.035 24.608 160.107 25.0453 159.083 25.344C158.059 25.664 157.035 25.824 156.011 25.824Z" fill="#E10174"/>
<path d="M169.364 24C168.639 24 168.042 23.6693 167.572 23.008C167.124 22.3467 166.9 21.5787 166.9 20.704C166.9 20.1067 166.996 19.4027 167.188 18.592C167.402 17.7813 167.658 16.992 167.956 16.224C168.255 15.4347 168.564 14.784 168.884 14.272C169.226 13.76 169.524 13.504 169.78 13.504C169.93 13.504 170.143 13.5787 170.42 13.728C170.719 13.8773 170.975 14.0587 171.188 14.272C170.954 14.6133 170.666 15.1467 170.324 15.872C170.004 16.5973 169.716 17.376 169.46 18.208C169.204 19.0187 169.076 19.7653 169.076 20.448C169.076 20.5547 169.087 20.7787 169.108 21.12C169.151 21.44 169.236 21.7387 169.364 22.016C169.514 22.2933 169.759 22.432 170.1 22.432C170.463 22.432 170.858 22.24 171.284 21.856C171.711 21.4507 172.138 20.928 172.564 20.288C173.012 19.648 173.439 18.9547 173.844 18.208C174.25 17.4613 174.623 16.7467 174.964 16.064C175.306 15.3813 175.583 14.8053 175.796 14.336C175.967 14.3573 176.191 14.4107 176.468 14.496C176.767 14.56 177.023 14.656 177.236 14.784C177.471 14.912 177.588 15.0933 177.588 15.328C177.588 15.392 177.482 15.6587 177.268 16.128C177.076 16.5973 176.842 17.1627 176.564 17.824C176.287 18.4853 176.042 19.1573 175.828 19.84C175.636 20.5227 175.54 21.12 175.54 21.632C175.54 21.952 175.604 22.2293 175.732 22.464C175.86 22.6987 176.106 22.816 176.468 22.816C176.916 22.816 177.45 22.6133 178.068 22.208C178.708 21.8027 179.359 21.216 180.02 20.448C180.682 19.6587 181.268 18.7307 181.78 17.664L182.228 18.016C181.759 19.168 181.151 20.2027 180.404 21.12C179.679 22.016 178.89 22.72 178.036 23.232C177.204 23.744 176.394 24 175.604 24C175.007 24 174.548 23.8613 174.228 23.584C173.908 23.328 173.684 22.9867 173.556 22.56C173.45 22.1333 173.396 21.696 173.396 21.248C173.396 21.0987 173.396 20.9387 173.396 20.768C173.418 20.5973 173.439 20.4373 173.46 20.288C173.098 20.9067 172.692 21.504 172.244 22.08C171.818 22.6347 171.359 23.0933 170.868 23.456C170.399 23.8187 169.898 24 169.364 24Z" fill="#E10174"/>
<path d="M183.766 23.968C182.87 23.968 182.198 23.6907 181.75 23.136C181.302 22.6027 181.078 21.9413 181.078 21.152C181.078 20.6613 181.163 20.0427 181.334 19.296C181.505 18.5493 181.739 17.7707 182.038 16.96C182.358 16.128 182.721 15.3493 183.126 14.624C183.531 13.8987 183.958 13.312 184.406 12.864C184.875 12.3947 185.334 12.16 185.782 12.16C186.017 12.16 186.219 12.2347 186.39 12.384C186.582 12.5333 186.678 12.7467 186.678 13.024C186.678 13.3013 186.507 13.7173 186.166 14.272C185.846 14.8267 185.462 15.4773 185.014 16.224C184.566 16.9493 184.171 17.7067 183.83 18.496C183.51 19.2853 183.35 20.0427 183.35 20.768C183.35 21.472 183.478 21.9413 183.734 22.176C183.99 22.4107 184.363 22.528 184.854 22.528C185.579 22.528 186.358 22.1653 187.19 21.44C188.043 20.7147 188.929 19.4453 189.846 17.632L190.262 18.08C189.558 19.9573 188.619 21.408 187.446 22.432C186.294 23.456 185.067 23.968 183.766 23.968ZM187.574 9.44C187.19 9.44 186.838 9.344 186.518 9.152C186.219 8.96 186.07 8.672 186.07 8.288C186.07 7.776 186.337 7.34933 186.87 7.008C187.425 6.64533 187.99 6.464 188.566 6.464C188.929 6.464 189.227 6.54933 189.462 6.72C189.697 6.89067 189.814 7.17867 189.814 7.584C189.814 8.032 189.579 8.45867 189.11 8.864C188.641 9.248 188.129 9.44 187.574 9.44Z" fill="#E10174"/>
<path d="M192.207 24.512C191.268 24.512 190.522 24.2347 189.967 23.68C189.434 23.1467 189.167 22.3253 189.167 21.216C189.167 20.32 189.338 19.2107 189.679 17.888C190.02 16.5653 190.447 15.2 190.959 13.792C190.788 13.7493 190.596 13.7173 190.383 13.696C190.191 13.6533 190.01 13.5893 189.839 13.504V12.64C190.116 12.6827 190.362 12.7147 190.575 12.736C190.81 12.7573 191.055 12.7787 191.311 12.8C191.759 11.6693 192.239 10.5707 192.751 9.504C193.284 8.43733 193.807 7.488 194.319 6.656C194.831 5.824 195.322 5.16267 195.791 4.672C196.26 4.18133 196.666 3.936 197.007 3.936C197.22 3.936 197.412 4.01067 197.583 4.16C197.754 4.30933 197.839 4.52267 197.839 4.8C197.839 5.20533 197.615 5.81333 197.167 6.624C196.74 7.41333 196.196 8.352 195.535 9.44C194.895 10.5067 194.276 11.6587 193.679 12.896C193.85 12.896 194.02 12.896 194.191 12.896C194.383 12.896 194.564 12.896 194.735 12.896C195.588 12.896 196.399 12.8853 197.167 12.864C197.935 12.8213 198.714 12.7573 199.503 12.672V13.568C198.33 13.696 197.252 13.792 196.271 13.856C195.311 13.92 194.415 13.952 193.583 13.952C193.519 13.952 193.444 13.952 193.359 13.952C193.295 13.952 193.231 13.952 193.167 13.952C192.698 15.04 192.292 16.1493 191.951 17.28C191.631 18.4107 191.471 19.5093 191.471 20.576C191.471 21.472 191.61 22.112 191.887 22.496C192.164 22.8587 192.612 23.04 193.231 23.04C194.298 23.04 195.386 22.5493 196.495 21.568C197.604 20.5867 198.564 19.264 199.375 17.6L199.823 17.92C199.29 19.1573 198.618 20.2773 197.807 21.28C196.996 22.2827 196.111 23.072 195.151 23.648C194.212 24.224 193.231 24.512 192.207 24.512Z" fill="#E10174"/>
<path d="M205.958 25.824C204.742 25.824 203.59 25.6107 202.502 25.184C201.414 24.7573 200.529 24.1067 199.846 23.232C199.185 22.3787 198.854 21.3013 198.854 20C198.854 18.8693 199.089 17.984 199.558 17.344C200.049 16.704 200.657 16.256 201.382 16C202.108 15.744 202.812 15.616 203.494 15.616C202.833 16.2987 202.332 17.024 201.99 17.792C201.67 18.56 201.51 19.296 201.51 20C201.51 20.7467 201.692 21.4507 202.054 22.112C202.417 22.752 202.972 23.2747 203.718 23.68C204.465 24.0853 205.393 24.288 206.502 24.288C207.462 24.288 208.39 24.1173 209.286 23.776C210.204 23.456 210.95 22.9653 211.526 22.304C212.124 21.6427 212.422 20.8213 212.422 19.84C212.422 18.944 212.177 18.176 211.686 17.536C211.196 16.896 210.566 16.3307 209.798 15.84C209.03 15.328 208.209 14.848 207.334 14.4C206.481 13.9307 205.67 13.4293 204.902 12.896C204.134 12.3627 203.505 11.7547 203.014 11.072C202.524 10.368 202.278 9.52533 202.278 8.544C202.278 7.66933 202.492 6.74133 202.918 5.76C203.366 4.75733 203.985 3.81867 204.774 2.944C205.585 2.06933 206.556 1.36533 207.686 0.832001C208.838 0.277334 210.118 0 211.526 0C212.913 0 213.884 0.309333 214.438 0.927999C215.014 1.54667 215.302 2.336 215.302 3.296C215.302 4.08533 215.164 4.928 214.886 5.824C214.63 6.72 214.3 7.57333 213.894 8.384C213.51 9.17333 213.137 9.856 212.774 10.432C212.326 10.3253 211.996 10.144 211.782 9.888C211.59 9.632 211.494 9.30133 211.494 8.896C211.494 8.448 211.58 7.94667 211.75 7.392C211.942 6.816 212.156 6.22933 212.39 5.632C212.646 5.01333 212.87 4.42667 213.062 3.872C213.254 3.296 213.35 2.784 213.35 2.336C213.35 1.93067 213.233 1.62133 212.998 1.408C212.764 1.17333 212.294 1.056 211.59 1.056C210.588 1.056 209.66 1.29067 208.806 1.76C207.953 2.208 207.206 2.784 206.566 3.488C205.948 4.192 205.457 4.928 205.094 5.696C204.753 6.464 204.582 7.168 204.582 7.808C204.582 8.576 204.817 9.23733 205.286 9.792C205.777 10.3467 206.396 10.848 207.142 11.296C207.91 11.744 208.721 12.2027 209.574 12.672C210.428 13.12 211.228 13.6213 211.974 14.176C212.742 14.7307 213.361 15.392 213.83 16.16C214.321 16.9067 214.566 17.8347 214.566 18.944C214.566 20.0533 214.321 21.0347 213.83 21.888C213.34 22.7413 212.668 23.456 211.814 24.032C210.982 24.608 210.054 25.0453 209.03 25.344C208.006 25.664 206.982 25.824 205.958 25.824Z" fill="#E10174"/>
<path d="M218.352 24.256C217.904 24.256 217.573 23.8933 217.36 23.168C217.146 22.464 217.04 21.6533 217.04 20.736C217.04 19.7333 217.21 18.5387 217.552 17.152C217.893 15.7653 218.341 14.304 218.896 12.768C219.45 11.2107 220.069 9.696 220.752 8.224C221.456 6.73067 222.17 5.38667 222.896 4.192C223.642 2.976 224.346 2.00533 225.008 1.28C225.669 0.554666 226.245 0.191999 226.736 0.191999C227.162 0.191999 227.482 0.437333 227.696 0.927999C227.909 1.39733 228.016 1.87733 228.016 2.368C228.016 2.96533 227.877 3.69067 227.6 4.544C227.344 5.376 226.981 6.272 226.512 7.232C226.042 8.192 225.488 9.14133 224.848 10.08C224.229 11.0187 223.557 11.872 222.832 12.64C222.106 13.408 221.349 14.0267 220.56 14.496C220.304 15.1787 220.09 15.8613 219.92 16.544C219.749 17.2053 219.621 17.8453 219.536 18.464C219.472 19.0827 219.44 19.6693 219.44 20.224C219.44 20.3733 219.44 20.5227 219.44 20.672C219.461 20.8 219.482 20.9173 219.504 21.024C219.653 20.64 219.845 20.1387 220.08 19.52C220.336 18.88 220.634 18.208 220.976 17.504C221.338 16.8 221.754 16.128 222.224 15.488C222.714 14.848 223.269 14.336 223.888 13.952C224.506 13.5467 225.189 13.344 225.936 13.344C226.618 13.344 227.152 13.504 227.536 13.824C227.941 14.1227 228.218 14.5067 228.368 14.976C228.538 15.4453 228.624 15.9253 228.624 16.416C228.624 17.0773 228.506 17.7173 228.272 18.336C228.058 18.9333 227.834 19.5093 227.6 20.064C227.386 20.5973 227.28 21.1093 227.28 21.6C227.28 21.984 227.365 22.2613 227.536 22.432C227.706 22.6027 227.92 22.688 228.176 22.688C228.645 22.688 229.189 22.4533 229.808 21.984C230.448 21.5147 231.066 20.896 231.664 20.128C232.282 19.3387 232.816 18.4747 233.264 17.536L233.744 18.016C233.274 19.0827 232.709 20.0533 232.048 20.928C231.386 21.8027 230.661 22.5067 229.872 23.04C229.104 23.552 228.282 23.808 227.408 23.808C226.618 23.808 226.021 23.5947 225.616 23.168C225.21 22.7627 225.008 22.2507 225.008 21.632C225.008 21.184 225.082 20.6933 225.232 20.16C225.402 19.6053 225.562 19.0507 225.712 18.496C225.861 17.92 225.936 17.3973 225.936 16.928C225.936 16.416 225.818 16.0533 225.584 15.84C225.37 15.6267 225.104 15.52 224.784 15.52C224.25 15.52 223.77 15.7333 223.344 16.16C222.917 16.5867 222.522 17.1307 222.16 17.792C221.818 18.4533 221.498 19.1573 221.2 19.904C220.901 20.6293 220.602 21.3333 220.304 22.016C220.026 22.6773 219.728 23.2107 219.408 23.616C219.088 24.0427 218.736 24.256 218.352 24.256ZM221.168 12.704C221.722 12.2133 222.266 11.6267 222.8 10.944C223.333 10.24 223.824 9.504 224.272 8.736C224.741 7.968 225.146 7.22133 225.488 6.496C225.829 5.77067 226.096 5.12 226.288 4.544C226.501 3.968 226.618 3.52 226.64 3.2C226.64 3.15733 226.629 3.12533 226.608 3.104C226.608 3.08267 226.597 3.072 226.576 3.072C226.448 3.072 226.17 3.34933 225.744 3.904C225.317 4.43733 224.816 5.16267 224.24 6.08C223.685 6.99733 223.13 8.032 222.576 9.184C222.021 10.336 221.552 11.5093 221.168 12.704Z" fill="#E10174"/>
<path d="M234.924 24.064C233.986 24.064 233.335 23.7547 232.972 23.136C232.61 22.5387 232.428 21.856 232.428 21.088C232.428 20.4053 232.535 19.712 232.748 19.008C232.962 18.304 233.25 17.6427 233.612 17.024C233.975 16.4053 234.38 15.904 234.828 15.52C235.276 15.136 235.735 14.944 236.204 14.944C236.332 14.944 236.482 14.976 236.652 15.04C236.844 15.0827 236.983 15.1467 237.068 15.232C236.834 15.488 236.578 15.8507 236.3 16.32C236.044 16.7893 235.799 17.3013 235.564 17.856C235.351 18.3893 235.17 18.9333 235.02 19.488C234.892 20.0213 234.828 20.512 234.828 20.96C234.828 21.4507 234.914 21.8347 235.084 22.112C235.255 22.3893 235.532 22.528 235.916 22.528C236.343 22.528 236.844 22.304 237.42 21.856C238.018 21.3867 238.583 20.8213 239.116 20.16C238.455 19.584 237.964 18.9227 237.644 18.176C237.346 17.408 237.196 16.544 237.196 15.584C237.196 15.0507 237.314 14.4853 237.548 13.888C237.783 13.2907 238.146 12.7893 238.636 12.384C239.127 11.9787 239.767 11.776 240.556 11.776C241.452 11.776 242.071 12.032 242.412 12.544C242.775 13.0347 242.956 13.632 242.956 14.336C242.956 15.1253 242.743 16.0213 242.316 17.024C241.911 18.0053 241.42 18.944 240.844 19.84C241.143 20.0107 241.474 20.096 241.836 20.096C242.156 20.096 242.54 20.0213 242.988 19.872C243.436 19.7227 243.863 19.4773 244.268 19.136C244.695 18.7733 245.036 18.304 245.292 17.728L245.804 18.112C245.356 19.1573 244.738 19.9253 243.948 20.416C243.18 20.8853 242.434 21.12 241.708 21.12C241.431 21.12 241.154 21.0987 240.876 21.056C240.599 20.992 240.343 20.9067 240.108 20.8C239.383 21.696 238.562 22.464 237.644 23.104C236.748 23.744 235.842 24.064 234.924 24.064ZM239.852 19.2C240.386 18.4533 240.823 17.6533 241.164 16.8C241.527 15.9253 241.708 15.1253 241.708 14.4C241.708 13.8667 241.623 13.4827 241.452 13.248C241.303 12.992 241.09 12.864 240.812 12.864C240.386 12.864 239.959 13.1627 239.532 13.76C239.106 14.336 238.892 15.072 238.892 15.968C238.892 16.48 238.967 17.056 239.116 17.696C239.287 18.3147 239.532 18.816 239.852 19.2Z" fill="#E10174"/>
<path d="M243.044 32C242.873 32 242.703 31.936 242.532 31.808C242.34 31.68 242.18 31.5413 242.052 31.392C241.924 31.2427 241.86 31.136 241.86 31.072C242.308 29.6853 242.703 28.4693 243.044 27.424C243.385 26.4 243.695 25.408 243.972 24.448C244.228 23.488 244.473 22.4533 244.708 21.344C244.943 20.2133 245.177 18.8907 245.412 17.376C245.647 15.84 245.892 13.9733 246.148 11.776C246.191 11.5413 246.244 11.3707 246.308 11.264C246.372 11.1573 246.564 11.104 246.884 11.104C247.503 11.104 247.951 11.2747 248.228 11.616C248.505 11.9573 248.644 12.3307 248.644 12.736C248.644 12.9707 248.591 13.3973 248.484 14.016C248.399 14.6133 248.271 15.3387 248.1 16.192C248.484 15.5307 248.943 14.9013 249.476 14.304C250.009 13.6853 250.607 13.1733 251.268 12.768C251.929 12.3627 252.644 12.16 253.412 12.16C254.436 12.16 255.268 12.512 255.908 13.216C256.569 13.8987 256.9 14.8053 256.9 15.936C256.9 16.768 256.708 17.6533 256.324 18.592C255.961 19.5093 255.439 20.384 254.756 21.216C254.095 22.0267 253.284 22.688 252.324 23.2C251.385 23.7333 250.351 24 249.22 24C248.58 24 248.068 23.9147 247.684 23.744C247.3 23.5947 247.108 23.4347 247.108 23.264C247.108 23.136 247.183 23.0613 247.332 23.04C247.503 22.9973 247.684 22.976 247.876 22.976C248.836 22.976 249.711 22.7733 250.5 22.368C251.311 21.9413 252.015 21.3973 252.612 20.736C253.231 20.0747 253.7 19.36 254.02 18.592C254.361 17.824 254.532 17.056 254.532 16.288C254.532 15.648 254.383 15.0933 254.084 14.624C253.807 14.1333 253.359 13.888 252.74 13.888C252.185 13.888 251.631 14.0693 251.076 14.432C250.543 14.7733 250.041 15.2107 249.572 15.744C249.103 16.256 248.687 16.8 248.324 17.376C247.961 17.952 247.684 18.464 247.492 18.912C247.087 20.384 246.703 21.824 246.34 23.232C245.999 24.6613 245.668 25.9733 245.348 27.168C245.049 28.384 244.751 29.3973 244.452 30.208C244.132 31.0187 243.823 31.552 243.524 31.808C243.375 31.936 243.215 32 243.044 32Z" fill="#E10174"/>
<path d="M263.912 10.88C263.912 14.0487 261.698 15.92 258.56 15.92C261.698 15.92 263.912 17.9513 263.912 21.12C263.912 17.9513 266.126 15.92 269.264 15.92C266.126 15.92 263.912 14.0487 263.912 10.88Z" fill="#E10174"/>
<path d="M5.12 10.88C5.12 13.9114 3.00218 15.7015 0 15.7015C3.00218 15.7015 5.12 17.6446 5.12 20.676C5.12 17.6446 7.23782 15.7015 10.24 15.7015C7.23782 15.7015 5.12 13.9114 5.12 10.88Z" fill="#E10174"/>
</svg>
